<?xml version="1.0" encoding="utf-8"?>
<svg width="40" height="40" viewBox="0 0 40 40" fill="none" xmlns="http://www.w3.org/2000/svg">
<path d="M8.20312 0.15625C7.99479 0.3125 7.83854 0.494792 7.73438 0.703125C7.63021 0.859375 7.55208 1.01562 7.5 1.17188V3.75H1.40625C1.09375 3.80208 0.833333 3.88021 0.625 3.98438C0.46875 4.08854 0.3125 4.24479 0.15625 4.45312L0 4.76562V38.9844L0.15625 39.2969C0.3125 39.5052 0.494792 39.6875 0.703125 39.8438L1.01562 40H38.9844L39.2969 39.8438C39.5052 39.6875 39.6875 39.5052 39.8438 39.2969L40 38.9844V4.76562L39.8438 4.45312C39.6875 4.24479 39.5052 4.08854 39.2969 3.98438C39.1406 3.88021 38.9062 3.80208 38.5938 3.75H32.5V1.17188C32.4479 1.01562 32.3698 0.859375 32.2656 0.703125C32.1615 0.494792 32.0052 0.338542 31.7969 0.234375C31.6406 0.130208 31.4323 0.0520833 31.1719 0H26.3281C26.0677 0.0520833 25.8333 0.130208 25.625 0.234375C25.4688 0.338542 25.3385 0.494792 25.2344 0.703125C25.1302 0.859375 25.0521 1.01562 25 1.17188V3.75H15V1.17188C14.9479 1.01562 14.8698 0.859375 14.7656 0.703125C14.6615 0.494792 14.5052 0.338542 14.2969 0.234375C14.1406 0.130208 13.9323 0.0520833 13.6719 0H8.82812C8.56771 0.0520833 8.35938 0.104167 8.20312 0.15625ZM12.5 5V7.5H10V2.5H12.5V5ZM30 5V7.5H27.5V2.5H30V5ZM7.5 7.57812C7.5 8.20312 7.5 8.61979 7.5 8.82812C7.55208 8.98438 7.63021 9.16667 7.73438 9.375C7.83854 9.53125 7.96875 9.66146 8.125 9.76562C8.33333 9.86979 8.56771 9.94792 8.82812 10H13.6719C13.9323 9.94792 14.1406 9.86979 14.2969 9.76562C14.5052 9.66146 14.6615 9.53125 14.7656 9.375C14.8698 9.16667 14.9479 8.98438 15 8.82812V6.25H25V8.82812C25.0521 8.98438 25.1302 9.16667 25.2344 9.375C25.3385 9.53125 25.4688 9.66146 25.625 9.76562C25.8333 9.86979 26.0677 9.94792 26.3281 10H31.1719C31.4323 9.94792 31.6406 9.86979 31.7969 9.76562C32.0052 9.66146 32.1615 9.53125 32.2656 9.375C32.3698 9.16667 32.4479 8.98438 32.5 8.82812V6.25H37.5V12.5H2.5V6.25H7.5V7.57812ZM37.5 26.25V37.5H2.5V15H37.5V26.25Z" fill="#2CCFBB"/>
</svg>
