<?xml version="1.0" encoding="utf-8"?>
<svg width="1920" height="705" viewBox="0 0 1920 705" fill="none" xmlns="http://www.w3.org/2000/svg">
<g opacity="0.1">
<path d="M2952 70.0843C2705.89 240.331 2484.97 309.298 2185.72 309.298C1869.34 309.298 1705.44 66.3103 1375.58 70.0845C998.602 74.3978 775.951 494.29 470.156 500.669C164.361 507.048 -61.4169 341.048 -212.001 70.0846" stroke="#7C77F8" stroke-width="3"/>
<path d="M2952 229.56C2705.89 399.806 2484.97 181.717 2185.72 181.717C1869.34 181.717 1705.44 496.895 1375.58 500.669C998.602 504.982 775.951 159.391 470.156 165.77C164.361 172.148 -61.4169 500.523 -212.001 229.56" stroke="#EB5767" stroke-width="2"/>
<path d="M-212.001 692.769C34.1033 424.295 255.028 315.536 554.28 315.536C870.658 315.536 1034.56 698.72 1364.42 692.768C1741.39 685.967 1964.05 23.8089 2269.84 13.7498C2575.64 3.69077 2801.41 265.468 2952 692.768" stroke="#2CCFBB" stroke-width="2"/>
<circle cx="1676.96" cy="536.961" r="11.9607" transform="rotate(180 1676.96 536.961)" fill="#2CCFBB"/>
<circle cx="1208.96" cy="479.961" r="11.9607" transform="rotate(180 1208.96 479.961)" fill="#EB5767"/>
<circle cx="1361.23" cy="70.084" r="11.9607" transform="rotate(180 1361.23 70.084)" fill="#7C77F8"/>
<circle cx="681.959" cy="432.961" r="11.9607" transform="rotate(180 681.959 432.961)" fill="#7C77F8"/>
<circle cx="227.959" cy="227.961" r="11.9607" transform="rotate(180 227.959 227.961)" fill="#EB5767"/>
<circle cx="452.215" cy="318.866" r="11.9607" transform="rotate(180 452.215 318.866)" fill="#2CCFBB"/>
</g>
<g opacity="0.1">
<path d="M-16 426.768C137.232 320.768 274.787 277.827 461.109 277.827C658.096 277.827 760.144 429.118 965.525 426.768C1200.24 424.083 1338.87 162.645 1529.27 158.673C1719.67 154.702 1860.24 258.059 1954 426.768" stroke="#7C77F8" stroke-width="3"/>
<path d="M-16 327.474C137.232 221.474 274.787 357.263 461.109 357.263C658.096 357.263 760.144 161.024 965.525 158.674C1200.24 155.988 1338.87 371.164 1529.27 367.192C1719.67 363.22 1860.24 158.765 1954 327.474" stroke="#EB5767" stroke-width="2"/>
<path d="M1954 39.0668C1800.77 206.226 1663.21 273.943 1476.89 273.943C1279.9 273.943 1177.86 35.3611 972.475 39.0668C737.758 43.3019 599.129 455.581 408.732 461.844C218.335 468.107 77.7584 305.117 -16 39.0668" stroke="#2CCFBB" stroke-width="2"/>
<line x1="398.557" y1="292.225" x2="398.557" y2="448.117" stroke="#737373" stroke-dasharray="8 8"/>
<circle cx="398.554" cy="279.813" r="7.44708" fill="#7C77F8"/>
<circle cx="398.554" cy="352.298" r="7.44708" fill="#EB5767"/>
<circle cx="398.554" cy="462.514" r="7.44708" fill="#2CCFBB"/>
<circle cx="777.877" cy="136.077" r="7.44708" fill="#2CCFBB"/>
<circle cx="1069.27" cy="171.567" r="7.44708" fill="#EB5767"/>
<circle cx="974.461" cy="426.769" r="7.44708" fill="#7C77F8"/>
<circle cx="1397.39" cy="200.831" r="7.44708" fill="#7C77F8"/>
<circle cx="1680.07" cy="328.47" r="7.44708" fill="#EB5767"/>
<circle cx="1540.44" cy="271.869" r="7.44708" fill="#2CCFBB"/>
</g>
</svg>
