<svg width="1920" height="1061" viewBox="0 0 1920 1061" fill="none" xmlns="http://www.w3.org/2000/svg">
<g opacity="0.2">
<ellipse cx="45.6945" cy="641.095" rx="13.5849" ry="12.6333" fill="white"/>
<path d="M76.5394 641.095C76.5394 656.672 62.9038 669.604 45.6946 669.604C28.4854 669.604 14.8499 656.672 14.8499 641.095C14.8499 625.518 28.4854 612.586 45.6946 612.586C62.9038 612.586 76.5394 625.518 76.5394 641.095Z" stroke="white" stroke-opacity="0.5" stroke-width="5"/>
<ellipse cx="645.362" cy="599.055" rx="13.5849" ry="12.6333" fill="white"/>
<path d="M676.207 599.055C676.207 614.632 662.572 627.564 645.362 627.564C628.153 627.564 614.518 614.632 614.518 599.055C614.518 583.478 628.153 570.546 645.362 570.546C662.572 570.546 676.207 583.478 676.207 599.055Z" stroke="white" stroke-opacity="0.5" stroke-width="5"/>
<ellipse cx="420.653" cy="42.6294" rx="13.5849" ry="12.6333" fill="white"/>
<path d="M451.498 42.6292C451.498 58.2064 437.862 71.1382 420.653 71.1382C403.444 71.1382 389.808 58.2064 389.808 42.6292C389.808 27.0519 403.444 14.1201 420.653 14.1201C437.862 14.1201 451.498 27.0519 451.498 42.6292Z" stroke="white" stroke-opacity="0.5" stroke-width="5"/>
<ellipse cx="392.731" cy="853.775" rx="13.5849" ry="12.6333" fill="white"/>
<path d="M423.576 853.775C423.576 869.352 409.94 882.284 392.731 882.284C375.522 882.284 361.886 869.352 361.886 853.775C361.886 838.197 375.522 825.266 392.731 825.266C409.94 825.266 423.576 838.197 423.576 853.775Z" stroke="white" stroke-opacity="0.5" stroke-width="5"/>
<ellipse cx="1308.85" cy="425.944" rx="13.5849" ry="12.6333" fill="white"/>
<path d="M1339.7 425.944C1339.7 441.521 1326.06 454.453 1308.85 454.453C1291.64 454.453 1278.01 441.521 1278.01 425.944C1278.01 410.366 1291.64 397.435 1308.85 397.435C1326.06 397.435 1339.7 410.366 1339.7 425.944Z" stroke="white" stroke-opacity="0.5" stroke-width="5"/>
<ellipse cx="1707.74" cy="188.537" rx="13.5849" ry="12.6333" fill="white"/>
<path d="M1738.59 188.537C1738.59 204.114 1724.95 217.046 1707.74 217.046C1690.54 217.046 1676.9 204.114 1676.9 188.537C1676.9 172.96 1690.54 160.028 1707.74 160.028C1724.95 160.028 1738.59 172.96 1738.59 188.537Z" stroke="white" stroke-opacity="0.5" stroke-width="5"/>
<ellipse cx="1873.95" cy="923.019" rx="13.5849" ry="12.6333" fill="white"/>
<path d="M1904.79 923.018C1904.79 938.596 1891.16 951.527 1873.95 951.527C1856.74 951.527 1843.1 938.596 1843.1 923.018C1843.1 907.441 1856.74 894.509 1873.95 894.509C1891.16 894.509 1904.79 907.441 1904.79 923.018Z" stroke="white" stroke-opacity="0.5" stroke-width="5"/>
<ellipse cx="1445.81" cy="948.984" rx="13.5849" ry="12.6333" fill="white"/>
<path d="M1476.65 948.984C1476.65 964.561 1463.02 977.493 1445.81 977.493C1428.6 977.493 1414.96 964.561 1414.96 948.984C1414.96 933.407 1428.6 920.475 1445.81 920.475C1463.02 920.475 1476.65 933.407 1476.65 948.984Z" stroke="white" stroke-opacity="0.5" stroke-width="5"/>
<ellipse cx="1782.2" cy="535.992" rx="13.5849" ry="12.6333" fill="white"/>
<path d="M1813.05 535.992C1813.05 551.569 1799.41 564.501 1782.2 564.501C1765 564.501 1751.36 551.569 1751.36 535.992C1751.36 520.415 1765 507.483 1782.2 507.483C1799.41 507.483 1813.05 520.415 1813.05 535.992Z" stroke="white" stroke-opacity="0.5" stroke-width="5"/>
<ellipse cx="62.9799" cy="241.706" rx="13.5849" ry="12.6333" fill="white"/>
<path d="M93.8248 241.706C93.8248 257.283 80.1892 270.215 62.98 270.215C45.7708 270.215 32.1353 257.283 32.1353 241.706C32.1353 226.129 45.7708 213.197 62.98 213.197C80.1892 213.197 93.8248 226.129 93.8248 241.706Z" stroke="white" stroke-opacity="0.5" stroke-width="5"/>
<ellipse cx="904.642" cy="1018.23" rx="13.5849" ry="12.6333" fill="white"/>
<path d="M935.486 1018.23C935.486 1033.81 921.851 1046.74 904.642 1046.74C887.432 1046.74 873.797 1033.81 873.797 1018.23C873.797 1002.65 887.432 989.719 904.642 989.719C921.851 989.719 935.486 1002.65 935.486 1018.23Z" stroke="white" stroke-opacity="0.5" stroke-width="5"/>
<ellipse cx="951.179" cy="172.462" rx="13.5849" ry="12.6333" fill="white"/>
<path d="M982.024 172.462C982.024 188.039 968.389 200.971 951.179 200.971C933.97 200.971 920.335 188.039 920.335 172.462C920.335 156.884 933.97 143.953 951.179 143.953C968.389 143.953 982.024 156.884 982.024 172.462Z" stroke="white" stroke-opacity="0.5" stroke-width="5"/>
<line opacity="0.5" y1="-1" x2="601.14" y2="-1" transform="matrix(0.997552 -0.0699356 0.0808015 0.99673 46.5371 641.744)" stroke="white" stroke-width="2"/>
<line opacity="0.5" y1="-1" x2="683.277" y2="-1" transform="matrix(0.852337 0.522993 -0.57866 0.815569 63.823 242.355)" stroke="white" stroke-width="2"/>
<line opacity="0.5" y1="-1" x2="600.086" y2="-1" transform="matrix(0.374461 0.927242 -0.944079 0.329719 421.496 43.2759)" stroke="white" stroke-width="2"/>
<line opacity="0.5" y1="-1" x2="358.754" y2="-1" transform="matrix(0.704191 -0.71001 0.759039 0.651045 393.574 854.424)" stroke="white" stroke-width="2"/>
<line opacity="0.5" y1="-1" x2="492.882" y2="-1" transform="matrix(-0.526048 -0.850455 0.881768 -0.471683 905.485 1018.88)" stroke="white" stroke-width="2"/>
<line opacity="0.5" y1="-1" x2="685.701" y2="-1" transform="matrix(-0.967608 0.252457 -0.288836 -0.957379 1309.7 426.593)" stroke="white" stroke-width="2"/>
<line opacity="0.5" y1="-1" x2="524.113" y2="-1" transform="matrix(-0.580958 0.813933 -0.85094 -0.525262 950.692 173.108)" stroke="white" stroke-width="2"/>
<line opacity="0.5" y1="-1" x2="873.59" y2="-1" transform="matrix(-0.916268 -0.400565 0.451143 -0.892452 1446.65 949.633)" stroke="white" stroke-width="2"/>
<line opacity="0.5" y1="-1" x2="540.673" y2="-1" transform="matrix(-0.253301 -0.967388 0.975308 -0.220851 1446.65 949.633)" stroke="white" stroke-width="2"/>
<line opacity="0.5" y1="-1" x2="752.607" y2="-1" transform="matrix(-0.750853 -0.660469 0.713086 -0.701076 1874.79 923.665)" stroke="white" stroke-width="2"/>
<line opacity="0.5" y1="-1" x2="485.976" y2="-1" transform="matrix(-0.974023 -0.226449 0.259614 -0.965713 1783.05 536.642)" stroke="white" stroke-width="2"/>
<line opacity="0.5" y1="-1" x2="464.196" y2="-1" transform="matrix(-0.859319 0.51144 -0.566925 -0.82377 1708.59 189.186)" stroke="white" stroke-width="2"/>
<line opacity="0.5" y1="-1" x2="439.473" y2="-1" transform="matrix(0.816894 0.576788 -0.632434 0.774614 950.692 173.108)" stroke="white" stroke-width="2"/>
<line opacity="0.5" y1="-1" x2="758.065" y2="-1" transform="matrix(0.999775 0.0212047 -0.0245176 0.999699 950.692 173.108)" stroke="white" stroke-width="2"/>
<line opacity="0.5" y1="-1" x2="355.346" y2="-1" transform="matrix(-0.209542 -0.9778 0.983257 -0.182226 1783.05 536.642)" stroke="white" stroke-width="2"/>
<line opacity="0.5" y1="-1" x2="397.759" y2="-1" transform="matrix(0.23136 0.972868 -0.9795 0.201446 1783.05 536.642)" stroke="white" stroke-width="2"/>
<line opacity="0.5" y1="-1" x2="429.214" y2="-1" transform="matrix(0.99816 -0.0606319 0.0700667 0.997542 1446.65 949.633)" stroke="white" stroke-width="2"/>
<line opacity="0.5" y1="-1" x2="545.576" y2="-1" transform="matrix(-0.991913 0.126919 -0.146363 -0.989231 1446.65 949.633)" stroke="white" stroke-width="2"/>
<line opacity="0.5" y1="-1" x2="538.945" y2="-1" transform="matrix(0.952307 0.305142 -0.347432 0.937705 392.244 854.424)" stroke="white" stroke-width="2"/>
<line opacity="0.5" y1="-1" x2="405.888" y2="-1" transform="matrix(-0.851729 -0.523983 0.579663 -0.814856 392.244 854.424)" stroke="white" stroke-width="2"/>
<line opacity="0.5" y1="-1" x2="399.764" y2="-1" transform="matrix(-0.0432388 0.999065 -0.9993 -0.0374022 63.823 242.355)" stroke="white" stroke-width="2"/>
<line opacity="0.5" y1="-1" x2="409.343" y2="-1" transform="matrix(0.873774 -0.486332 0.541197 0.840896 63.823 242.355)" stroke="white" stroke-width="2"/>
<line opacity="0.5" y1="-1" x2="546.182" y2="-1" transform="matrix(-0.971336 -0.237709 0.272288 -0.962216 952.022 173.108)" stroke="white" stroke-width="2"/>
</g>
</svg>
