<?xml version="1.0" encoding="utf-8"?>
<svg width="1920" height="735" viewBox="0 0 1920 735" fill="none" xmlns="http://www.w3.org/2000/svg">
<circle cx="1482.5" cy="237.5" r="11" stroke="#4F4C6B" stroke-width="3"/>
<circle cx="438" cy="68" r="11" stroke="#7C77F8" stroke-width="2"/>
<path d="M1482.3 546.045C1485.91 552.161 1493.79 554.196 1499.91 550.588C1506.02 546.981 1508.06 539.099 1504.45 532.982" stroke="#7C77F8" stroke-width="7"/>
<path d="M285.644 305.197C282.425 301.93 282.465 296.673 285.732 293.454C288.999 290.236 294.256 290.275 297.475 293.542" stroke="#47D4DD" stroke-width="5"/>
<rect x="596.121" y="632.142" width="17" height="17" transform="rotate(-45 596.121 632.142)" stroke="white" stroke-width="3"/>
<rect x="1077.12" y="100.929" width="9.62743" height="9.62743" transform="rotate(-45 1077.12 100.929)" stroke="white" stroke-width="3"/>
<rect x="1721.12" y="648.571" width="17.6066" height="17.6066" transform="rotate(-45 1721.12 648.571)" stroke="white" stroke-width="3"/>
<rect x="78.1323" y="86.7774" width="30" height="4" transform="rotate(102.146 78.1323 86.7774)" fill="#4F4C6B"/>
<rect x="58.7777" y="95.9096" width="30" height="4" transform="rotate(12.1459 58.7777 95.9096)" fill="#4F4C6B"/>
<rect width="13.7262" height="1.83015" transform="matrix(0.707107 -0.707107 -0.707107 -0.707107 1113.29 721)" fill="white"/>
<rect width="13.7262" height="1.83015" transform="matrix(0.707107 0.707107 0.707107 -0.707107 1112 711.294)" fill="white"/>
<rect x="1726.97" y="37.0702" width="18.7175" height="2.49567" transform="rotate(85.2728 1726.97 37.0702)" fill="#EDD573"/>
<rect x="1717.07" y="46.0277" width="18.7175" height="2.49567" transform="rotate(-4.7272 1717.07 46.0277)" fill="#EDD573"/>
<mask id="mask0" mask-type="alpha" maskUnits="userSpaceOnUse" x="0" y="0" width="1920" height="731">
<rect width="1920" height="731" fill="#C4C4C4"/>
</mask>
<g mask="url(#mask0)">
<g opacity="0.4">
<path d="M2957 89.0842C2710.89 259.331 2489.97 328.298 2190.72 328.298C1874.34 328.298 1710.44 85.3102 1380.58 89.0844C1003.6 93.3976 780.952 513.29 475.157 519.669C169.362 526.048 -56.4164 360.047 -207.001 89.0844" stroke="#7C77F8" stroke-width="3"/>
<path d="M2957 248.56C2710.89 418.806 2489.97 200.717 2190.72 200.717C1874.34 200.717 1710.44 515.895 1380.58 519.669C1003.6 523.982 780.952 178.391 475.157 184.77C169.362 191.148 -56.4164 519.523 -207.001 248.56" stroke="#EB5767" stroke-width="2"/>
<path d="M-207.001 711.769C39.1038 443.295 260.029 334.536 559.28 334.536C875.658 334.536 1039.56 717.72 1369.42 711.768C1746.4 704.966 1969.05 42.8088 2274.84 32.7498C2580.64 22.6907 2806.41 284.468 2957 711.768" stroke="#2CCFBB" stroke-width="2"/>
<circle cx="1681.96" cy="555.961" r="11.9607" transform="rotate(180 1681.96 555.961)" fill="#2CCFBB"/>
<circle cx="1213.96" cy="498.961" r="11.9607" transform="rotate(180 1213.96 498.961)" fill="#EB5767"/>
<circle cx="1366.23" cy="89.0839" r="11.9607" transform="rotate(180 1366.23 89.0839)" fill="#7C77F8"/>
<circle cx="686.96" cy="451.961" r="11.9607" transform="rotate(180 686.96 451.961)" fill="#7C77F8"/>
<circle cx="232.96" cy="246.961" r="11.9607" transform="rotate(180 232.96 246.961)" fill="#EB5767"/>
<circle cx="457.216" cy="337.866" r="11.9607" transform="rotate(180 457.216 337.866)" fill="#2CCFBB"/>
</g>
<g opacity="0.4">
<path d="M-10.9998 445.768C142.232 339.768 279.787 296.827 466.11 296.827C663.096 296.827 765.144 448.118 970.525 445.768C1205.24 443.083 1343.87 181.645 1534.27 177.674C1724.67 173.702 1865.24 277.059 1959 445.768" stroke="#7C77F8" stroke-width="3"/>
<path d="M-10.9998 346.474C142.232 240.474 279.787 376.262 466.11 376.262C663.096 376.262 765.144 180.024 970.525 177.674C1205.24 174.988 1343.87 390.164 1534.27 386.192C1724.67 382.22 1865.24 177.765 1959 346.474" stroke="#EB5767" stroke-width="2"/>
<path d="M1959 58.0669C1805.77 225.226 1668.21 292.943 1481.89 292.943C1284.9 292.943 1182.86 54.3612 977.476 58.0669C742.758 62.302 604.129 474.581 413.732 480.844C223.335 487.107 82.7587 324.117 -10.9997 58.0669" stroke="#2CCFBB" stroke-width="2"/>
<line x1="403.558" y1="311.225" x2="403.558" y2="467.117" stroke="#737373" stroke-dasharray="8 8"/>
<circle cx="403.554" cy="298.813" r="7.44708" fill="#7C77F8"/>
<circle cx="403.554" cy="371.298" r="7.44708" fill="#EB5767"/>
<circle cx="403.554" cy="481.515" r="7.44708" fill="#2CCFBB"/>
<circle cx="782.877" cy="155.077" r="7.44708" fill="#2CCFBB"/>
<circle cx="1074.27" cy="190.567" r="7.44708" fill="#EB5767"/>
<circle cx="979.461" cy="445.769" r="7.44708" fill="#7C77F8"/>
<circle cx="1402.39" cy="219.831" r="7.44708" fill="#7C77F8"/>
<circle cx="1685.07" cy="347.47" r="7.44708" fill="#EB5767"/>
<circle cx="1545.44" cy="290.869" r="7.44708" fill="#2CCFBB"/>
</g>
<circle cx="1175.5" cy="131.5" r="16.5" fill="#ABECE4"/>
<circle cx="1008" cy="178" r="18" fill="#F7BCC2"/>
<circle cx="1140" cy="213" r="12" fill="#F7BCC2"/>
<ellipse cx="1352" cy="520.5" rx="14" ry="13.5" fill="#F7BCC2"/>
</g>
</svg>
