<?xml version="1.0" encoding="utf-8"?>
<svg width="40" height="40" viewBox="0 0 40 40" fill="none" xmlns="http://www.w3.org/2000/svg">
<path d="M18.3594 0.234375C17.474 0.390625 16.849 0.885417 16.4844 1.71875L16.3281 2.10938L16.25 9.60938L10.0781 17.5781L9.92188 17.2656C9.81771 16.849 9.60938 16.5625 9.29688 16.4062C9.14062 16.3542 8.85417 16.3021 8.4375 16.25H1.48438C1.11979 16.3021 0.833333 16.3802 0.625 16.4844C0.46875 16.5885 0.3125 16.7448 0.15625 16.9531L0 17.2656V38.9844L0.15625 39.2969C0.3125 39.5052 0.46875 39.6615 0.625 39.7656C0.833333 39.8698 1.11979 39.9479 1.48438 40H8.51562C8.88021 39.9479 9.14062 39.8958 9.29688 39.8438C9.55729 39.6875 9.73958 39.5052 9.84375 39.2969C9.94792 39.0365 10 38.5938 10 37.9688C10 37.3438 10 37.0312 10 37.0312L11.7188 37.8125C12.8125 38.3854 13.75 38.8021 14.5312 39.0625C15.3125 39.3229 16.25 39.5573 17.3438 39.7656C17.7604 39.8698 18.3594 39.9219 19.1406 39.9219L25.5469 40C29.4531 40 31.7969 40 32.5781 40C33.3594 39.9479 34.0104 39.8177 34.5312 39.6094C35.3125 39.349 36.0156 38.8542 36.6406 38.125C37.3177 37.3958 37.7604 36.5625 37.9688 35.625C38.0729 35.2604 38.4375 32.5521 39.0625 27.5L39.7656 21.6406C39.9219 20.5469 39.974 19.7917 39.9219 19.375C39.9219 19.1146 39.8438 18.776 39.6875 18.3594V18.2812C39.4271 17.5521 39.0104 16.901 38.4375 16.3281C37.9167 15.8594 37.2917 15.4948 36.5625 15.2344L36.0156 15H26.25L26.1719 8.98438C26.1719 8.56771 26.1198 8.20312 26.0156 7.89062C25.651 6.11979 24.8698 4.55729 23.6719 3.20312C22.526 1.79688 21.1979 0.859375 19.6875 0.390625C19.1667 0.234375 18.724 0.182292 18.3594 0.234375ZM20.3125 3.4375C21.1458 3.95833 21.875 4.71354 22.5 5.70312C23.125 6.69271 23.5156 7.73438 23.6719 8.82812C23.724 9.19271 23.75 10.5469 23.75 12.8906V16.0156C23.8021 16.3802 23.8802 16.6667 23.9844 16.875C24.0885 17.0312 24.2448 17.1875 24.4531 17.3438L24.7656 17.5H34.8438C35.3125 17.5521 35.6771 17.6042 35.9375 17.6562C36.3542 17.8125 36.7188 18.099 37.0312 18.5156C37.3438 18.9323 37.5 19.349 37.5 19.7656C37.5 19.9219 37.1875 22.5 36.5625 27.5C35.9375 32.5 35.599 35.0781 35.5469 35.2344C35.4427 35.5469 35.2344 35.8854 34.9219 36.25C34.6615 36.6146 34.375 36.901 34.0625 37.1094C33.6979 37.3177 33.2031 37.4479 32.5781 37.5C32.0052 37.5 30.026 37.5 26.6406 37.5H26.0156C22.2135 37.5 19.8698 37.474 18.9844 37.4219C18.151 37.3698 17.2917 37.2396 16.4062 37.0312C15.3125 36.7708 13.8542 36.1719 12.0312 35.2344L10 34.2969V21.6406L14.2969 16.1719C17.1615 12.474 18.6198 10.5469 18.6719 10.3906C18.724 10.2344 18.75 8.90625 18.75 6.40625V2.65625L19.2188 2.89062C19.5312 2.99479 19.8958 3.17708 20.3125 3.4375ZM7.5 28.125V37.5H2.5V18.75H7.5V28.125Z" fill="#2CCFBB"/>
</svg>
