<?xml version="1.0" encoding="utf-8"?>
<svg width="38" height="36" viewBox="0 0 38 36" fill="none" xmlns="http://www.w3.org/2000/svg">
<path d="M7.20299 0.578125C7.04674 0.682292 6.91653 0.8125 6.81236 0.96875C6.70819 1.07292 5.64049 2.76562 3.60924 6.04688C1.57799 9.27604 0.510277 10.9948 0.40611 11.2031C0.197777 11.5677 0.171735 11.9062 0.327985 12.2188C0.432152 12.4271 3.42694 16.3333 9.31236 23.9375C15.2499 31.4896 18.2707 35.3177 18.3749 35.4219C18.5311 35.474 18.7394 35.5 18.9999 35.5C19.2603 35.5 19.4426 35.474 19.5467 35.4219C19.703 35.3177 22.7238 31.4896 28.6092 23.9375C34.5467 16.3333 37.5676 12.4271 37.6717 12.2188C37.828 11.9062 37.8019 11.5677 37.5936 11.2031C37.4894 10.9948 36.4217 9.27604 34.3905 6.04688C32.3592 2.76562 31.2915 1.07292 31.1874 0.96875L31.1092 0.890625C31.0051 0.734375 30.7967 0.630208 30.4842 0.578125C30.1717 0.526042 29.3124 0.5 27.9061 0.5H18.9999C11.3436 0.5 7.41132 0.526042 7.20299 0.578125ZM16.6561 3.07812C16.5519 3.33854 15.9269 4.38021 14.7811 6.20312L12.9061 9.09375C12.854 9.14583 12.3332 8.15625 11.3436 6.125L9.78111 3.07812C9.78111 3.02604 10.9269 3 13.2186 3C15.5624 3 16.7082 3.02604 16.6561 3.07812ZM28.2186 3.07812C28.2186 3.07812 27.6978 4.09375 26.6561 6.125C25.6665 8.15625 25.1457 9.14583 25.0936 9.09375L21.3436 3.07812C21.2915 3.02604 22.4113 3 24.703 3C27.0467 3 28.2186 3.02604 28.2186 3.07812ZM21.0311 7.29688L22.9842 10.4219H15.0155L16.9686 7.29688C18.2707 5.21354 18.9478 4.19792 18.9999 4.25C19.0519 4.25 19.729 5.26562 21.0311 7.29688ZM9.23424 7.375C10.2238 9.40625 10.6926 10.4479 10.6405 10.5C10.6405 10.5 9.49465 10.5 7.20299 10.5L3.76549 10.4219L7.35924 4.71875C7.51549 4.45833 7.59361 4.32812 7.59361 4.32812C7.64569 4.32812 8.19257 5.34375 9.23424 7.375ZM32.3592 7.45312L34.2342 10.4219L30.7967 10.5C28.5051 10.5 27.3332 10.5 27.2811 10.5C27.2811 10.4479 27.7759 9.40625 28.7655 7.375C29.8072 5.34375 30.354 4.35417 30.4061 4.40625L32.3592 7.45312ZM11.8124 13.1562C11.9165 13.3646 12.6457 15.9688 13.9999 20.9688L16.1092 28.4688C16.0572 28.4688 14.078 25.9167 10.1717 20.8125L4.15611 13.0781C4.10403 13.026 5.35403 13 7.90611 13H11.2655C11.6301 13.0521 11.8124 13.1042 11.8124 13.1562ZM23.6092 13.0781C23.5572 13.1823 22.7759 15.9427 21.2655 21.3594C19.8072 26.776 19.0519 29.4844 18.9999 29.4844C18.9478 29.4844 18.1926 26.776 16.7342 21.3594L14.3905 13.0781C14.3905 13.026 15.9269 13 18.9999 13C22.0728 13 23.6092 13.026 23.6092 13.0781ZM33.8436 13.0781C33.7915 13.1823 31.7863 15.7865 27.828 20.8906C23.9217 25.9427 21.9426 28.4688 21.8905 28.4688L26.1874 13.1562C26.1874 13.1042 26.3697 13.0521 26.7342 13H30.0936C32.6457 13 33.8957 13.026 33.8436 13.0781Z" fill="#2CCFBB"/>
</svg>
