<svg width="1519" height="1645" viewBox="0 0 1519 1645" fill="none" xmlns="http://www.w3.org/2000/svg">
<g opacity="0.8">
<rect x="-1.41437" y="-1.19209e-07" width="77.4903" height="77.4903" transform="matrix(-0.707184 0.707029 -0.707184 -0.707029 1501.81 159.967)" stroke="#1DCD9F" stroke-width="2"/>
<rect x="-1.41437" y="-1.19209e-07" width="38.9786" height="38.9786" transform="matrix(-0.707184 0.707029 -0.707184 -0.707029 1148.63 859.404)" stroke="#1DCD9F" stroke-width="2"/>
<rect width="55.4259" height="55.4259" transform="matrix(-0.707184 0.707029 -0.707184 -0.707029 1161.26 1017.37)" fill="white"/>
<rect width="21.701" height="21.701" transform="matrix(-0.707185 0.707029 -0.707184 -0.707029 1137.41 1176.33)" fill="white"/>
<rect x="-1.41437" y="-1.19209e-07" width="38.9786" height="38.9786" transform="matrix(-0.707184 0.707029 -0.707184 -0.707029 270.7 426.208)" stroke="#1DCD9F" stroke-width="2"/>
<rect x="-1.41437" y="-1.19209e-07" width="28.4562" height="28.4562" transform="matrix(-0.707184 0.70703 -0.707184 -0.70703 263.259 346.724)" stroke="#1DCD9F" stroke-width="2"/>
<rect x="-1.41437" y="-1.19209e-07" width="54.211" height="54.211" transform="matrix(-0.707184 0.707029 -0.707184 -0.707029 281.472 585.169)" stroke="#1DCD9F" stroke-width="2"/>
<rect width="30.4562" height="30.4562" transform="matrix(-0.707184 0.707029 -0.707184 -0.707029 265.674 687.495)" fill="white"/>
<rect width="30.4562" height="30.4562" transform="matrix(-0.707184 0.707029 -0.707184 -0.707029 440.571 1164.38)" fill="white"/>
<rect x="-1.41437" y="-1.19209e-07" width="28.4562" height="28.4562" transform="matrix(-0.707185 0.707029 -0.707185 -0.707029 40.6616 529.532)" stroke="#1DCD9F" stroke-width="2"/>
<rect width="95.3884" height="95.3884" transform="matrix(-0.707184 0.707029 -0.707184 -0.707029 1519 1510.15)" fill="white"/>
<rect width="67.4548" height="67.4548" transform="matrix(-0.707184 0.70703 -0.707184 -0.70703 860.286 47.6924)" fill="white"/>
<path opacity="0.4" d="M1454.69 247.872L1446.74 247.872L1446.74 1327.1L1454.69 1327.1L1454.69 247.872Z" fill="white"/>
<path d="M421.205 645.28L413.255 645.28L413.255 1009.15L421.205 1009.15L421.205 645.28Z" fill="white"/>
<path opacity="0.7" d="M23.71 645.28L15.76 645.28L15.7599 1645L23.7099 1645L23.71 645.28Z" fill="white"/>
</g>
</svg>
