<svg width="192" height="207" viewBox="0 0 192 207" fill="none" xmlns="http://www.w3.org/2000/svg">
<rect x="2.56526" y="186.966" width="9" height="9" transform="rotate(-45 2.56526 186.966)" stroke="#1DCD9F"/>
<rect x="46.2839" y="98.9658" width="5.15517" height="5.15517" transform="rotate(-45 46.2839 98.9658)" fill="#FFE037"/>
<rect x="44.9988" y="78.9658" width="6.97266" height="6.97266" transform="rotate(-45 44.9988 78.9658)" fill="#FFE037"/>
<rect x="48.7059" y="58.9658" width="1.73002" height="1.73002" transform="rotate(-45 48.7059 58.9658)" fill="#7C77F8" stroke="#1DCD9F"/>
<rect x="156.717" y="153.469" width="5.15517" height="5.15517" transform="rotate(-45 156.717 153.469)" fill="#088C6F"/>
<rect x="157.653" y="163.469" width="3.83144" height="3.83144" transform="rotate(-45 157.653 163.469)" fill="#088C6F"/>
<rect x="155.362" y="133.469" width="7.07142" height="7.07142" transform="rotate(-45 155.362 133.469)" fill="#088C6F"/>
<rect x="157.653" y="120.469" width="3.83144" height="3.83144" transform="rotate(-45 157.653 120.469)" fill="#FFE037"/>
<rect x="135.653" y="60.4688" width="3.83144" height="3.83144" transform="rotate(-45 135.653 60.4688)" fill="#FFE037"/>
<rect x="185.653" y="140.469" width="3.83144" height="3.83144" transform="rotate(-45 185.653 140.469)" fill="#FFE037"/>
<rect x="1.41421" y="16.9658" width="10" height="10" transform="rotate(-45 1.41421 16.9658)" stroke="#1DCD9F" stroke-width="2"/>
<rect x="84.2724" y="200.966" width="6.48591" height="6.48591" transform="rotate(-45 84.2724 200.966)" stroke="#1DCD9F" stroke-width="2"/>
<path opacity="0.4" d="M8.08911 175.78H9.08911L9.08911 39.9967H8.08911L8.08911 175.78Z" fill="#088C6F"/>
<path opacity="0.7" d="M88.0891 185.78H89.0891L89.0891 90H88.0891L88.0891 185.78Z" fill="#088C6F"/>
<path d="M138.089 125.78H139.089V80H138.089V125.78Z" fill="#088C6F"/>
<path opacity="0.7" d="M188.089 125.78H189.089L189.089 3.05176e-05H188.089L188.089 125.78Z" fill="#088C6F"/>
</svg>
