<?xml version="1.0" encoding="utf-8"?>
<svg width="42" height="40" viewBox="0 0 42 40" fill="none" xmlns="http://www.w3.org/2000/svg">
<path d="M13.8633 0.476562C13.6445 0.640625 13.4805 0.832031 13.3711 1.05078C13.2617 1.21484 13.1797 1.43359 13.125 1.70703V6.875H1.06641L0.738281 7.03906C0.519531 7.20312 0.328125 7.39453 0.164062 7.61328L0 7.94141V29.4336L0.164062 29.7617C0.328125 29.9805 0.519531 30.1719 0.738281 30.3359L1.06641 30.5H14.4375V33.207C14.4922 33.3711 14.5742 33.5625 14.6836 33.7812C14.793 33.9453 14.957 34.1094 15.1758 34.2734L15.5039 34.4375H26.4961L26.8242 34.2734C27.043 34.1094 27.207 33.9453 27.3164 33.7812C27.4258 33.5625 27.5078 33.3711 27.5625 33.207V30.5H40.9336L41.2617 30.3359C41.4805 30.1719 41.6719 29.9805 41.8359 29.7617L42 29.4336V7.94141L41.8359 7.61328C41.6719 7.39453 41.4805 7.20312 41.2617 7.03906L40.9336 6.875H28.875V1.70703C28.8203 1.43359 28.7383 1.21484 28.6289 1.05078C28.5195 0.832031 28.3555 0.640625 28.1367 0.476562L27.8086 0.3125H14.1914L13.8633 0.476562ZM26.25 4.90625V6.875H15.75V2.9375H26.25V4.90625ZM39.375 18.6875V27.875H27.5625V25.168C27.5078 25.0039 27.4258 24.8398 27.3164 24.6758C27.207 24.457 27.043 24.2656 26.8242 24.1016L26.4961 23.9375H15.5039L15.1758 24.1016C14.957 24.2656 14.793 24.457 14.6836 24.6758C14.5742 24.8398 14.4922 25.0039 14.4375 25.168V27.875H2.625V9.5H39.375V18.6875ZM24.9375 29.1875V31.8125H17.0625V26.5625H24.9375V29.1875ZM2.05078 31.9766C1.83203 32.1406 1.66797 32.332 1.55859 32.5508C1.44922 32.7148 1.36719 32.9336 1.3125 33.207V38.293C1.36719 38.5664 1.44922 38.8125 1.55859 39.0312C1.66797 39.1953 1.83203 39.3594 2.05078 39.5234L2.37891 39.6875H39.6211L39.9492 39.5234C40.168 39.3594 40.332 39.1953 40.4414 39.0312C40.5508 38.8125 40.6328 38.5664 40.6875 38.293V33.207C40.6328 32.9336 40.5508 32.7148 40.4414 32.5508C40.3867 32.332 40.25 32.168 40.0312 32.0586C39.8125 31.8945 39.5938 31.8125 39.375 31.8125C39.1562 31.8125 38.9375 31.8945 38.7188 32.0586C38.5 32.168 38.3359 32.332 38.2266 32.5508C38.1719 32.7148 38.1172 32.9062 38.0625 33.125V37.0625H3.9375V33.125C3.88281 32.9062 3.80078 32.7148 3.69141 32.5508C3.63672 32.332 3.5 32.168 3.28125 32.0586C3.0625 31.8945 2.84375 31.8125 2.625 31.8125C2.46094 31.8125 2.26953 31.8672 2.05078 31.9766Z" fill="#EB5767"/>
</svg>
