<?xml version="1.0" encoding="utf-8"?>
<svg width="42" height="42" viewBox="0 0 42 42" fill="none" xmlns="http://www.w3.org/2000/svg">
<path d="M19.8516 0.164062C18.5391 0.382813 17.3906 0.984375 16.4062 1.96875C16.0781 2.29688 15.832 2.57031 15.668 2.78906C15.5586 2.95312 15.3945 3.22656 15.1758 3.60938C14.6836 4.59375 14.4375 5.57812 14.4375 6.5625C14.4375 7.54688 14.6836 8.53125 15.1758 9.51562C15.3945 9.89844 15.5586 10.1992 15.668 10.418C15.832 10.582 16.0781 10.8281 16.4062 11.1562C16.7344 11.4844 16.9805 11.7305 17.1445 11.8945C17.3633 12.0039 17.6641 12.168 18.0469 12.3867C20.0156 13.3711 21.9844 13.3711 23.9531 12.3867C24.3359 12.168 24.6094 12.0039 24.7734 11.8945C24.9922 11.7305 25.2656 11.4844 25.5938 11.1562C25.9219 10.8281 26.1406 10.582 26.25 10.418C26.4141 10.1992 26.6055 9.89844 26.8242 9.51562C27.3164 8.53125 27.5625 7.54688 27.5625 6.5625C27.5625 5.57812 27.3164 4.59375 26.8242 3.60938C26.6055 3.22656 26.4141 2.95312 26.25 2.78906C26.1406 2.57031 25.9219 2.29688 25.5938 1.96875C25.0469 1.42187 24.6094 1.06641 24.2812 0.902344C22.75 0.0820312 21.2734 -0.164062 19.8516 0.164062ZM6.80859 2.78906C5.93359 2.95312 5.11328 3.36328 4.34766 4.01953C3.63672 4.67578 3.14453 5.44141 2.87109 6.31641C2.43359 7.79297 2.59766 9.21484 3.36328 10.582C4.18359 11.8945 5.33203 12.6875 6.80859 12.9609C7.51953 13.125 8.23047 13.125 8.94141 12.9609C10.1445 12.7422 11.1289 12.1406 11.8945 11.1562C12.7148 10.1719 13.125 9.07813 13.125 7.875C13.125 7.05469 12.9609 6.28906 12.6328 5.57812C12.0312 4.48438 11.2109 3.69141 10.1719 3.19922C9.13281 2.65234 8.01172 2.51563 6.80859 2.78906ZM21.9844 2.78906C22.6406 2.95312 23.2148 3.30859 23.707 3.85547C24.2539 4.34766 24.6094 4.92188 24.7734 5.57812C24.9922 6.23438 24.9922 6.91797 24.7734 7.62891C24.6094 8.28516 24.2539 8.85938 23.707 9.35156C22.9961 10.1172 22.0938 10.5 21 10.5C19.9062 10.5 18.9766 10.1172 18.2109 9.35156C17.4453 8.58594 17.0625 7.65625 17.0625 6.5625C17.0625 5.46875 17.4453 4.53906 18.2109 3.77344C18.7031 3.28125 19.2773 2.95312 19.9336 2.78906C20.6445 2.57031 21.3281 2.57031 21.9844 2.78906ZM33.0586 2.78906C32.1836 2.95312 31.3633 3.36328 30.5977 4.01953C29.8867 4.67578 29.3945 5.44141 29.1211 6.31641C28.6836 7.79297 28.8477 9.21484 29.6133 10.582C30.4336 11.8945 31.582 12.6875 33.0586 12.9609C33.7695 13.125 34.4805 13.125 35.1914 12.9609C36.3945 12.7422 37.3789 12.1406 38.1445 11.1562C38.9648 10.1719 39.375 9.07813 39.375 7.875C39.375 7.05469 39.2109 6.28906 38.8828 5.57812C38.2812 4.48438 37.4609 3.69141 36.4219 3.19922C35.3828 2.65234 34.2617 2.51563 33.0586 2.78906ZM8.85938 5.41406C9.13281 5.52344 9.40625 5.74219 9.67969 6.07031C10.0078 6.34375 10.2266 6.61719 10.3359 6.89062C10.6641 7.76563 10.5547 8.58594 10.0078 9.35156C9.51562 10.1172 8.80469 10.5 7.875 10.5C7.16406 10.5 6.53516 10.2539 5.98828 9.76172C5.49609 9.21484 5.25 8.58594 5.25 7.875C5.25 7.16406 5.52344 6.5625 6.07031 6.07031C6.39844 5.6875 6.80859 5.44141 7.30078 5.33203C7.79297 5.22266 8.3125 5.25 8.85938 5.41406ZM35.1094 5.41406C35.3828 5.52344 35.6562 5.74219 35.9297 6.07031C36.2578 6.34375 36.4766 6.61719 36.5859 6.89062C36.9141 7.76563 36.8047 8.58594 36.2578 9.35156C35.7656 10.1172 35.0547 10.5 34.125 10.5C33.4141 10.5 32.7852 10.2539 32.2383 9.76172C31.7461 9.21484 31.5 8.58594 31.5 7.875C31.5 7.16406 31.7734 6.5625 32.3203 6.07031C32.6484 5.6875 33.0586 5.44141 33.5508 5.33203C34.043 5.22266 34.5625 5.25 35.1094 5.41406ZM4.18359 14.6016C3.30859 14.7656 2.48828 15.1758 1.72266 15.832C1.01172 16.4883 0.519531 17.2539 0.246094 18.1289C0.136719 18.4023 0.0820312 18.7305 0.0820312 19.1133L0 26.4141L0.164062 26.8242C0.328125 27.0977 0.519531 27.2891 0.738281 27.3984C1.01172 27.5078 1.39453 27.5625 1.88672 27.5625H2.625V35.1914C2.67969 35.5742 2.76172 35.875 2.87109 36.0938C2.98047 36.2578 3.11719 36.3945 3.28125 36.5039C3.5 36.6133 3.80078 36.6953 4.18359 36.75H11.5664C11.9492 36.6953 12.2227 36.6406 12.3867 36.5859C12.6055 36.4766 12.7695 36.3125 12.8789 36.0938C13.043 35.875 13.125 35.6562 13.125 35.4375C13.125 35.2188 13.043 35 12.8789 34.7812C12.7695 34.5625 12.6055 34.4258 12.3867 34.3711C12.2227 34.2617 11.9766 34.1797 11.6484 34.125H5.25V26.4961C5.19531 26.1133 5.11328 25.8125 5.00391 25.5938C4.89453 25.375 4.70312 25.2109 4.42969 25.1016C4.21094 24.9922 3.85547 24.9375 3.36328 24.9375H2.625V19.5234C2.67969 19.1953 2.73438 18.9219 2.78906 18.7031C2.89844 18.4297 3.08984 18.1562 3.36328 17.8828C3.69141 17.5547 3.99219 17.3359 4.26562 17.2266C4.53906 17.1172 4.83984 17.0625 5.16797 17.0625L10.8281 17.1445C11.1562 17.1445 11.4023 17.1992 11.5664 17.3086C11.7852 17.418 12.0039 17.5547 12.2227 17.7188L12.4688 17.9648L12.3047 18.6211C12.0859 19.168 11.9492 19.6875 11.8945 20.1797C11.8945 20.6719 11.8672 22.1484 11.8125 24.6094V30.3516L11.9766 30.7617C12.1406 30.9805 12.3047 31.1445 12.4688 31.2539C12.6875 31.3633 12.8789 31.4453 13.043 31.5H15.75V40.9336L15.9141 41.2617C16.0781 41.4805 16.2422 41.6445 16.4062 41.7539C16.625 41.8633 16.9258 41.9453 17.3086 42H24.6914C25.0742 41.9453 25.3477 41.8633 25.5117 41.7539C25.7305 41.6445 25.9219 41.4805 26.0859 41.2617L26.25 40.9336V31.5H28.957C29.1211 31.4453 29.2852 31.3633 29.4492 31.2539C29.668 31.1445 29.8594 30.9805 30.0234 30.7617L30.1875 30.4336V25.4297C30.1875 22.75 30.1602 21.082 30.1055 20.4258C30.0508 19.7148 29.9141 19.0859 29.6953 18.5391L29.4492 17.9648L29.8594 17.6367C30.2422 17.3633 30.625 17.1992 31.0078 17.1445C31.3906 17.0898 32.457 17.0625 34.207 17.0625C35.957 17.0625 37.0234 17.0898 37.4062 17.1445C37.7891 17.1992 38.1719 17.4453 38.5547 17.8828C38.9375 18.2656 39.1562 18.6484 39.2109 19.0312C39.3203 19.3594 39.375 20.3711 39.375 22.0664V24.9375H38.6367C38.1445 24.9375 37.7617 24.9922 37.4883 25.1016C37.2695 25.2109 37.1055 25.375 36.9961 25.5938C36.8867 25.8125 36.8047 26.1133 36.75 26.4961V34.125H30.3516C30.0234 34.1797 29.75 34.2617 29.5312 34.3711C29.3672 34.4258 29.2031 34.5625 29.0391 34.7812C28.9297 35 28.875 35.2188 28.875 35.4375C28.875 35.6562 28.9297 35.875 29.0391 36.0938C29.2031 36.3125 29.3672 36.4766 29.5312 36.5859C29.75 36.6406 30.0508 36.6953 30.4336 36.75H37.8164C38.1992 36.6953 38.4727 36.6133 38.6367 36.5039C38.8555 36.3945 39.0195 36.2578 39.1289 36.0938C39.2383 35.875 39.3203 35.5742 39.375 35.1914V27.5625H40.1133C40.6055 27.5625 40.9609 27.5078 41.1797 27.3984C41.4531 27.2891 41.6445 27.125 41.7539 26.9062C41.8633 26.6875 41.9453 26.4141 42 26.0859V22.8867C42 20.4805 41.9727 19.0586 41.918 18.6211C41.6992 17.6367 41.207 16.7617 40.4414 15.9961C39.6758 15.2305 38.7734 14.7383 37.7344 14.5195C37.2422 14.4648 35.9297 14.4375 33.7969 14.4375C31.7188 14.4375 30.5156 14.4922 30.1875 14.6016C29.4766 14.8203 28.8203 15.1484 28.2188 15.5859L27.8086 15.9141L27.2344 15.5859C26.5234 15.0391 25.7031 14.6836 24.7734 14.5195C24.2812 14.4648 23.0234 14.4375 21 14.4375C18.9766 14.4375 17.7188 14.4648 17.2266 14.5195C16.2969 14.6836 15.4766 15.0391 14.7656 15.5859L14.1914 15.9141L13.7812 15.5859C13.1797 15.1484 12.5234 14.8203 11.8125 14.6016C11.5391 14.5469 10.2812 14.5195 8.03906 14.5195C5.79688 14.4648 4.51172 14.4922 4.18359 14.6016ZM24.6094 17.2266C25.2656 17.3906 25.8398 17.7461 26.332 18.293C26.8789 18.7852 27.2344 19.332 27.3984 19.9336C27.5078 20.2617 27.5625 21.8477 27.5625 24.6914V28.875H24.8555C24.6914 28.9297 24.5 29.0117 24.2812 29.1211C24.1172 29.2305 23.9531 29.3945 23.7891 29.6133L23.625 29.9414V39.375H18.375V29.9414L18.2109 29.6133C18.0469 29.3945 17.8555 29.2305 17.6367 29.1211C17.4727 29.0117 17.3086 28.9297 17.1445 28.875H14.4375V24.6914C14.4375 21.8477 14.4922 20.2617 14.6016 19.9336C14.7656 19.332 15.0938 18.7852 15.5859 18.293C16.1328 17.7461 16.707 17.3906 17.3086 17.2266C17.6367 17.1172 18.8398 17.0625 20.918 17.0625C23.0508 17.0625 24.2812 17.1172 24.6094 17.2266Z" fill="#7C77F8"/>
</svg>
