<?xml version="1.0" encoding="utf-8"?>
<svg width="42" height="38" viewBox="0 0 42 38" fill="none" xmlns="http://www.w3.org/2000/svg">
<path d="M0.738281 0.789062C0.519531 0.953125 0.328125 1.14453 0.164062 1.36328L0 1.69141V36.3086L0.164062 36.6367C0.328125 36.8555 0.519531 37.0469 0.738281 37.2109L1.06641 37.375H40.9336L41.2617 37.2109C41.4805 37.0469 41.6719 36.8555 41.8359 36.6367L42 36.3086V1.69141L41.8359 1.36328C41.6719 1.14453 41.4805 0.953125 41.2617 0.789062L40.9336 0.625H1.06641L0.738281 0.789062ZM39.375 8.5V13.75H2.625V3.25H39.375V8.5ZM7.30078 7.35156C7.08203 7.46094 6.89062 7.625 6.72656 7.84375C6.61719 8.0625 6.5625 8.28125 6.5625 8.5C6.5625 8.71875 6.61719 8.9375 6.72656 9.15625C6.89062 9.375 7.05469 9.53906 7.21875 9.64844C7.4375 9.70313 7.65625 9.75781 7.875 9.8125H9.1875H10.5C10.7188 9.75781 10.9102 9.70313 11.0742 9.64844C11.293 9.53906 11.457 9.375 11.5664 9.15625C11.7305 8.9375 11.8125 8.71875 11.8125 8.5C11.8125 8.28125 11.7305 8.0625 11.5664 7.84375C11.457 7.625 11.293 7.48828 11.0742 7.43359C10.9102 7.32422 10.7188 7.24219 10.5 7.1875H9.1875H7.875C7.65625 7.24219 7.46484 7.29687 7.30078 7.35156ZM15.1758 7.35156C14.957 7.46094 14.7656 7.625 14.6016 7.84375C14.4922 8.0625 14.4375 8.28125 14.4375 8.5C14.4375 8.71875 14.4922 8.9375 14.6016 9.15625C14.7656 9.375 14.9297 9.53906 15.0938 9.64844C15.3125 9.70313 15.5312 9.75781 15.75 9.8125H17.0625H18.375C18.5938 9.75781 18.7852 9.70313 18.9492 9.64844C19.168 9.53906 19.332 9.375 19.4414 9.15625C19.6055 8.9375 19.6875 8.71875 19.6875 8.5C19.6875 8.28125 19.6055 8.0625 19.4414 7.84375C19.332 7.625 19.168 7.48828 18.9492 7.43359C18.7852 7.32422 18.5938 7.24219 18.375 7.1875H17.0625H15.75C15.5312 7.24219 15.3398 7.29687 15.1758 7.35156ZM28.3008 7.35156C28.082 7.46094 27.8906 7.625 27.7266 7.84375C27.6172 8.0625 27.5625 8.28125 27.5625 8.5C27.5625 8.71875 27.6172 8.9375 27.7266 9.15625C27.8906 9.375 28.0547 9.53906 28.2188 9.64844C28.4375 9.70313 28.6836 9.75781 28.957 9.8125H34.043C34.3164 9.75781 34.5352 9.70313 34.6992 9.64844C34.918 9.53906 35.082 9.375 35.1914 9.15625C35.3555 8.9375 35.4375 8.71875 35.4375 8.5C35.4375 8.28125 35.3555 8.0625 35.1914 7.84375C35.082 7.625 34.918 7.48828 34.6992 7.43359C34.5352 7.32422 34.3164 7.24219 34.043 7.1875H28.957C28.6836 7.24219 28.4648 7.29687 28.3008 7.35156ZM39.375 25.5625V34.75H2.625V16.375H39.375V25.5625Z" fill="#2CCFBB"/>
</svg>
