<?xml version="1.0" encoding="utf-8"?>
<!-- Generator: Adobe Illustrator 26.0.1, SVG Export Plug-In . SVG Version: 6.00 Build 0)  -->
<svg version="1.1" id="Layer_1" xmlns="http://www.w3.org/2000/svg" xmlns:xlink="http://www.w3.org/1999/xlink" x="0px" y="0px"
	 viewBox="0 0 1000 400" style="enable-background:new 0 0 1000 400;" xml:space="preserve">
<g>
	<path d="M117.6,320.7c4.19,0.38,2.92,4.92,1.39,7c-0.38,0.63-0.76,1.01-0.82,1.08c-2.22,2.46-6.22,4.48-12.63,6.24
		c-1.15,0.38-2.35,0.69-3.62,0.95c-2.29,3.22-4.7,7.45-7.05,11.92c0,0-3.17,5.99-4.06,12.12c-0.95,6.5,0.25,13.19,7.11,14.07
		c0.44,0.06,0.82,0.13,1.27,0.13c2.03,0.06,4.57-0.38,7.55-1.83c2.79-1.32,5.65-3.47,8.38-6.31c3.23-3.34,6.35-7.76,9.39-12.99
		c0.32-0.51,0.95-0.69,1.53-0.45c0.5,0.32,0.69,1.01,0.38,1.52c-5.84,10.22-12.12,17.04-18.65,20.26c-3.18,1.52-5.9,2.02-8.19,2.02
		s-4.13-0.5-5.27-1.01c-2.53-1.01-4.63-2.46-6.16-4.29c-1.39-1.71-2.35-3.66-2.92-5.93c-0.83-3.79-0.45-8.4,1.14-13.32
		c2.03-6.37,5.4-11.61,7.05-14.01c-2.41,0.45-4.89,0.95-7.37,1.39c-11.04,2.08-22.4,4.23-31.86,7.89
		c-5.07,1.96-9.01,4.17-12.06,6.69c-3.17,2.59-5.27,5.48-6.41,8.83c-0.06,0.32-0.19,0.57-0.25,0.89c0,0-0.69,2.02-0.95,4.73
		c-0.19,2.52-0.06,6.19,1.65,9.27c1.46,2.59,3.81,4.48,7.04,5.68c1.65,0.57,3.3,0.38,4.32,0.63c1.15,0.25-0.5,2.27-3.62,1.01
		c0,0-1.27-0.38-2.16-0.82c-2.98-1.32-5.2-3.28-6.67-5.87c-1.9-3.41-2.03-7.38-1.78-10.03c0.25-2.78,0.89-4.8,0.95-5.05
		c1.14-3.85,3.49-7.32,7.04-10.29c3.18-2.59,7.24-4.86,12.44-6.88c9.52-3.66,21.01-5.8,32.05-7.89c2.99-0.57,5.91-1.13,8.7-1.7
		c1.52-2.27,3.24-4.23,4.89-5.87c0,0,2.48-2.46,5.65-4.8c3.17-2.33,7.3-4.67,11.05-4.98C116.08,320.7,116.9,320.64,117.6,320.7z
		 M103.13,334.39c0.7-0.19,1.39-0.38,2.09-0.57c6.16-1.76,9.96-3.59,11.99-5.87c0,0,0,0,0.06-0.06c0,0,2.03-2.21,1.52-4.23
		c-0.06-0.06-0.13-0.25-0.25-0.31c-0.13-0.13-0.31-0.25-0.57-0.25C116.21,322.66,111.07,324.05,103.13,334.39z"/>
	<path d="M155.13,354.08c-0.13,0.19-2.92,4.48-6.47,8.64c-4.25,5.05-7.74,7.51-10.47,7.51c-0.19,0-0.38-0.06-0.57-0.06
		c-1.21-0.13-5.02-0.94-5.21-4.92c-1.33,1.64-2.54,2.9-3.68,3.72c-1.15,0.76-2.22,1.2-3.23,1.2c-0.19,0-0.45,0-0.7-0.06
		c-0.19-0.06-0.89-0.19-1.52-0.57c-1.46-0.88-3.43-2.9-2.6-7.57c1.2-7,9.77-18.42,14.72-15.52c0,0,2.03,0.88,2.22,4.48
		c0.76-1.39,1.65-2.84,2.66-4.23c0.32-0.5,0.83-0.76,1.4-0.76h2.09c1.34,0,1.85,1.71,0.89,3.16c-2.73,4.29-10.54,17.98-6.79,18.87
		c1.9,0.31,5.21-2.08,9.14-6.69c3.43-3.98,6.22-8.33,6.28-8.4c0.32-0.5,1.01-0.69,1.52-0.32
		C155.32,352.88,155.45,353.51,155.13,354.08z M130.76,363.74c0.57-0.69,1.08-1.45,1.52-2.08c1.08-2.34,4.57-11.99,2.35-12.31
		c-2.35-0.31-7.55,7.26-9.26,12.31c-1.65,4.86,0,6.19,0.19,6.31C126.76,367.9,128.67,366.39,130.76,363.74z"/>
	<path d="M151.98,369.67c-4.95-2.65-2.03-10.92-2.03-10.92c0.89-3.22,2.35-6.94,4.25-10.79c4.51-8.9,10.03-18.42,11.61-21.14
		c0.32-0.51,0.76-0.76,1.34-0.76h1.84c1.33,0,2.16,1.39,1.52,2.52c-2.16,3.73-6.41,11.05-10.54,18.8c-2.6,4.86-4.44,9.09-5.65,12.43
		c0,0-2.09,6.06-0.57,8.14c1.9,0.38,5.21-2.02,9.21-6.63c3.43-4.04,6.28-8.39,6.28-8.45c0.32-0.5,1.01-0.69,1.52-0.32
		c0.51,0.32,0.7,0.95,0.38,1.52c-0.13,0.19-2.92,4.48-6.47,8.64c-4.32,5.05-7.74,7.51-10.47,7.51
		C153.07,370.23,151.98,369.67,151.98,369.67z"/>
	<path d="M167.99,369.67c-4.95-2.65-2.03-10.92-2.03-10.92c0.89-3.22,2.35-6.94,4.25-10.79c4.51-8.9,10.03-18.42,11.61-21.14
		c0.32-0.51,0.76-0.76,1.34-0.76H185c1.33,0,2.16,1.39,1.52,2.52c-2.16,3.73-6.41,11.05-10.54,18.8c-2.6,4.86-4.44,9.09-5.65,12.43
		c0,0-2.09,6.06-0.57,8.14c1.9,0.38,5.21-2.02,9.21-6.63c3.43-4.04,6.28-8.39,6.28-8.45c0.32-0.5,1.01-0.69,1.52-0.32
		c0.51,0.32,0.7,0.95,0.38,1.52c-0.13,0.19-2.92,4.48-6.47,8.64c-4.32,5.05-7.74,7.51-10.47,7.51
		C169.07,370.23,167.99,369.67,167.99,369.67z"/>
	<path d="M204.76,379.39c-12.25-1.83,3.43-31.43,3.43-31.43c4.51-8.9,10.03-18.42,11.61-21.14c0.32-0.51,0.76-0.76,1.34-0.76h1.84
		c1.33,0,2.16,1.39,1.52,2.52c-2.16,3.73-6.41,11.05-10.54,18.8c0,0-0.13,0.25-0.32,0.76c0.95,0.5,2.29,1.07,3.81,1.52
		c4.25,1.13,7.93,0.63,11.05-1.58c0.51-0.38,1.14-0.25,1.52,0.25c0.38,0.5,0.25,1.2-0.25,1.51c-2.41,1.71-5.14,2.59-8.19,2.59
		c-1.52,0-3.11-0.19-4.76-0.69c-0.83-0.25-1.65-0.51-2.35-0.82c0.06,0.25,0.13,0.44,0.19,0.69c0.63,2.33,0.89,4.98,0.82,7.89
		c-0.13,3.54-0.82,7.45-1.97,11.61c-0.06,0.13-0.69,2.33-1.9,4.35c-1.9,3.16-4.06,4.04-5.71,4.04
		C205.46,379.51,204.76,379.39,204.76,379.39z M211.74,368.97c0.89-3.34,1.4-6.5,1.46-9.4c0.13-2.65-0.12-5.05-0.63-7.19
		c-0.13-0.38-0.19-0.82-0.32-1.14c-3.23,7.26-9.58,22.72-6.98,26c0.76,0.06,1.21,0,1.21,0c1.14-0.25,2.16-1.2,3.17-2.84
		c1.15-1.83,1.71-3.85,1.71-3.91C211.48,369.92,211.74,368.97,211.74,368.97z"/>
	<path d="M235.94,363.8c-1.9,3.59-5.9,7.89-11.48,6.43c-6.86-1.89-3.3-11.67-3.3-11.67s2.03-6.75,6.54-8.46
		c2.41-4.48,5.33-4.92,7.37-4.48c0.82,0.13,1.97,0.69,2.73,2.27c1.46,2.97,1.21,8.46-0.57,13.19c1.14-0.45,2.28-1.08,3.43-1.83
		c1.97-1.45,3.81-3.4,5.52-5.93c0.32-0.5,1.02-0.63,1.52-0.31c0.51,0.38,0.64,1.07,0.32,1.57c-1.84,2.71-3.93,4.92-6.16,6.5
		c-1.39,1.01-2.79,1.76-4.25,2.27C236.57,363.67,235.94,363.8,235.94,363.8z M233.33,364.11c-0.13,0.06-0.31,0.06-0.44,0.06
		c-1.46,0-2.41-0.25-2.6-0.31c-1.97-0.51-3.36-1.45-4.25-2.84c-0.19-0.32-0.32-0.63-0.45-1.01c-0.38,1.27-2.16,7.32,0.13,8.46
		C227.56,369.36,230.86,368.09,233.33,364.11z M234.54,361.85c0.95-2.21,1.65-4.67,1.84-7.07c0.25-2.46,0.06-4.61-0.57-5.87
		c-0.32-0.63-0.76-1.01-1.2-1.13c-0.25-0.06-0.51-0.06-0.7-0.06c-0.76,0-1.52,0.25-2.16,0.82c-0.82,0.64-1.59,1.58-2.29,2.9
		c-0.57,1.13-1.01,2.27-1.33,3.22c-0.25,0.76-0.51,1.83-0.51,1.83s-0.51,1.96,0.38,3.41c0.51,0.88,1.46,1.51,2.79,1.83
		C230.8,361.72,232.83,362.22,234.54,361.85z"/>
	<path d="M262.74,346.39c1.84,1.13,0.95,4.22-0.45,6.5c0,0-0.95,1.7-2.79,0.95c-1.65-0.69-0.63-2.34-0.63-2.34
		c0.76-1.32,1.27-2.52,0.82-2.84c-0.13-0.06-0.25,0-0.38,0.06c-1.14,0.63-2.28,1.71-2.85,2.27c-1.84,1.76-3.93,4.29-6.35,7.57
		c-4.06,5.48-7.42,11.23-7.42,11.29c-0.25,0.31-0.57,0.5-0.95,0.5c-0.06,0-0.13,0-0.19,0c-5.58-0.06,7.05-22.4,7.05-22.4
		c0.32-0.5,0.57-0.94,0.89-1.45c0.19-0.31,0.57-0.57,1.02-0.57h2.29c1.78,0,1.39,1.83,1.01,2.46c-0.06,0-0.06,0-0.06,0
		s-1.84,3.15-4.06,7.06c1.9-2.52,3.68-4.54,5.21-6.06c2.66-2.52,4.76-3.66,6.47-3.47c0,0,0.38,0.06,0.64,0.13
		C262.29,346.13,262.54,346.26,262.74,346.39z"/>
	<path d="M289.23,382.4c-1.3,0.1-2.59,0.13-3.83,0.11c-6.53-0.13-11.62-2.01-15.12-5.64c-1.45-1.5-2.58-3.3-3.41-5.28
		c-0.71-1.67-1.16-3.46-1.44-5.3c-0.43-3.14-0.2-5.46-0.13-5.71c0.64-7.35,4.47-14.02,11.43-19.83c5.52-4.61,13.01-8.7,22.27-12.19
		c4.54-1.69,11.93-4.12,21.59-6.2c5.82-1.17,9.72-1.71,9.78-1.71c0.12,0,0.19,0,0.31,0.01l2.72,0.05c1.23,0.02,2.01,1.39,1.37,2.48
		c-1.59,2.67-4.4,7.21-7.4,12.43c0.19-0.18,0.37-0.36,0.5-0.6c3.1-3.62,5.86-6.39,8.18-8.3c3.26-2.57,5.75-3.57,7.65-2.98
		c1.04,0.27,4.59,1.63,3.24,7.43c-1.35,5.43-6.59,12.08-12.34,15.77c1.78,0.34,3.19,1.04,4.28,1.99c1.15,1.06,1.8,2.43,2.08,4.09
		c3.15-0.43,6.55-0.67,10.13-0.66c0.62,0.01,1.1,0.45,1.09,1.06c0.05,0.61-0.45,1.1-1.07,1.09c-3.58-0.01-6.91,0.23-10.06,0.66
		c-0.01,0.49-0.08,1.04-0.22,1.65c-0.42,2.38-1.33,4.7-2.67,6.81c-1.27,2-2.85,3.81-4.8,5.37c-3.39,2.94-7.68,4.94-11.33,5.42
		c-0.68,0.11-1.3,0.16-1.85,0.15c-2.59-0.05-4.48-1.07-5.37-2.93c-0.77-1.67-0.35-4.17,1.24-6.59c0.96-1.58,2.34-3.09,4.1-4.46
		c1.94-1.49,4.31-2.86,6.99-4.03c2.98-1.29,6.33-2.27,9.99-2.93c-0.9-4.68-6.08-4.42-7.32-4.32c-0.74,0.23-1.55,0.4-2.23,0.45
		c-0.68,0.11-1.35-0.09-1.84-0.53c-0.85-0.75-1.93-2.06,0.05-2.51c7.32-1.63,17.41-12.72,18.43-17.79c0.75-3.55-1.79-3.17-2.1-3.17
		c-0.86,0.17-2.36,0.75-4.68,2.67c-2.26,1.79-4.9,4.5-7.93,8c-4.04,4.76-7.6,9.66-8.99,11.6c-2.76,5.34-6.16,12.08-6.45,14.04
		c0,0-0.21,1.28-1.01,1.33c-3.46,0.24-1.65-7.02,0.75-13.17c1.7-4.57,3.81-8.51,3.81-8.51c3.78-7.16,8.31-14.68,10.6-18.56
		c-4.51,0.46-14.16,1.74-26.02,5.56c-0.93,0.35-1.86,0.7-2.79,1.05c-9.14,3.38-16.43,7.4-21.89,11.96c-3.2,2.64-5.72,5.53-7.51,8.56
		c-2.04,3.27-3.16,6.8-3.48,10.48c0,0-0.29,2.38,0.14,5.4c0.38,2.83,1.53,6.78,4.49,9.9c3.57,3.69,8.96,5.45,16,5.29l0.24,0
		c1.49-0.09,3.23-1.04,4.28-1.26c1.06-0.23,0.39,2.03-2.14,2.35C289.54,382.41,289.3,382.4,289.23,382.4z M321.7,372.31
		c0.56-0.11,1.18-0.22,1.73-0.4c5.15-1.49,11.72-6.39,13.48-14.02c0.2-0.79,0.27-1.47,0.35-2.14c-3.4,0.67-6.5,1.59-9.24,2.76
		c-6.28,2.7-9.06,5.95-10.15,7.65c-1.14,1.75-1.55,3.52-1.07,4.58C317.09,371.36,318.11,372.73,321.7,372.31z"/>
	<path d="M361.75,363.17c-1.92,3.45-5.89,7.55-11.28,6.03c-6.63-1.97-2.99-11.4-2.99-11.4s2.1-6.52,6.52-8.09
		c2.43-4.3,5.28-4.68,7.24-4.21c0.8,0.14,1.9,0.71,2.6,2.26c1.37,2.91,1.01,8.24-0.81,12.81c1.12-0.41,2.24-1,3.37-1.72
		c1.94-1.37,3.76-3.23,5.48-5.66c0.32-0.48,1-0.59,1.48-0.27c0.49,0.38,0.6,1.05,0.28,1.54c-1.84,2.6-3.92,4.71-6.11,6.2
		c-1.37,0.95-2.74,1.66-4.18,2.12C362.38,363.06,361.75,363.17,361.75,363.17z M359.22,363.42c-0.12,0.06-0.3,0.06-0.43,0.05
		c-1.42-0.03-2.34-0.29-2.52-0.35c-1.9-0.53-3.24-1.48-4.08-2.84c-0.18-0.31-0.3-0.62-0.41-0.99c-0.4,1.22-2.24,7.07-0.04,8.22
		C353.51,368.41,356.74,367.24,359.22,363.42z M360.44,361.24c0.96-2.13,1.69-4.51,1.92-6.83c0.29-2.38,0.15-4.47-0.44-5.71
		c-0.3-0.62-0.72-1-1.15-1.13c-0.25-0.07-0.49-0.07-0.68-0.08c-0.74-0.01-1.48,0.21-2.11,0.75c-0.81,0.6-1.57,1.5-2.28,2.78
		c-0.57,1.09-1.03,2.19-1.35,3.1c-0.26,0.73-0.53,1.77-0.53,1.77s-0.53,1.89,0.31,3.32c0.48,0.86,1.39,1.5,2.68,1.83
		C356.8,361.05,358.77,361.58,360.44,361.24z"/>
	<path d="M383.11,363.59c-1.92,3.45-5.89,7.55-11.28,6.03c-6.63-1.97-2.99-11.4-2.99-11.4s2.1-6.52,6.52-8.09
		c2.43-4.3,5.28-4.68,7.24-4.21c0.8,0.14,1.9,0.71,2.6,2.26c1.37,2.91,1.01,8.24-0.81,12.81c1.12-0.41,2.24-1,3.37-1.72
		c1.94-1.37,3.76-3.23,5.48-5.66c0.32-0.48,1-0.59,1.48-0.27c0.49,0.38,0.6,1.05,0.28,1.54c-1.84,2.6-3.92,4.71-6.11,6.2
		c-1.37,0.95-2.74,1.66-4.18,2.12C383.73,363.48,383.11,363.59,383.11,363.59z M380.57,363.85c-0.12,0.06-0.3,0.06-0.43,0.05
		c-1.42-0.03-2.34-0.29-2.52-0.35c-1.9-0.53-3.24-1.48-4.08-2.84c-0.18-0.31-0.3-0.62-0.41-0.99c-0.4,1.22-2.24,7.07-0.04,8.22
		C374.86,368.83,378.09,367.66,380.57,363.85z M381.79,361.67c0.96-2.13,1.69-4.51,1.92-6.83c0.29-2.38,0.15-4.47-0.44-5.71
		c-0.3-0.62-0.72-1-1.15-1.13c-0.25-0.07-0.49-0.07-0.68-0.08c-0.74-0.01-1.48,0.21-2.11,0.75c-0.81,0.6-1.57,1.5-2.28,2.78
		c-0.57,1.09-1.03,2.19-1.35,3.1c-0.26,0.73-0.53,1.77-0.53,1.77s-0.53,1.89,0.31,3.32c0.48,0.86,1.39,1.5,2.68,1.83
		C378.15,361.47,380.12,362,381.79,361.67z"/>
	<path d="M400.95,370.26c-6.96-0.81-3.22-8.59-2.87-11.1c0.35-2.02-1.24-2.66-1.98-2.86c-2.56,4.98-5.39,10.69-5.61,12.46
		c0,0-0.21,1.28-1.01,1.33c-6.06,0.49,5.49-21.67,5.49-21.67c4.55-8.56,10.1-17.71,11.69-20.31c0.26-0.49,0.76-0.72,1.31-0.71
		l1.79,0.04c1.29,0.03,2.07,1.39,1.43,2.48c-2.23,3.58-6.44,10.61-10.6,18.07c0,0-1.41,2.55-3.2,5.95c0.92-0.11,2.1-0.32,3.28-0.67
		c3.6-1.03,5.73-2.95,6.34-5.64c0.14-0.61,0.76-0.97,1.31-0.83c0.55,0.13,0.91,0.69,0.78,1.3c-0.81,3.48-3.51,6-7.85,7.27
		c-0.31,0.06-0.56,0.17-0.87,0.22c0,0,0.61,0.57,0.97,1.25c0.42,0.75,0.58,1.66,0.5,2.65c-0.1,1.78-0.62,3.42-1.09,4.82
		c-0.93,3.05-0.81,3.42,0.17,3.74c1.29,0.4,2.97-0.49,4.22-1.32c1.56-1.14,3.39-2.82,5.34-5.05c3.41-3.86,6.2-7.98,6.21-8.04
		c0.32-0.48,1-0.65,1.49-0.34c0.49,0.38,0.66,0.99,0.34,1.54c-0.13,0.12-2.86,4.3-6.4,8.28c-2.08,2.35-4.03,4.15-5.78,5.35
		c-1.38,1.01-2.75,1.6-3.92,1.76C401.68,370.34,400.95,370.26,400.95,370.26z"/>
	<path d="M434.02,355.16c-0.13,0.18-2.99,4.36-6.52,8.33c-4.29,4.89-7.73,7.21-10.38,7.16c-0.25,0-0.49-0.01-0.74-0.08
		c-0.49-0.07-1.23-0.27-2.08-0.72c-4.28-2.17-1.48-9.23-1.48-9.23c0.98-2.74,3.18-7.85,6.85-12.93c0.32-0.48,0.88-0.72,1.38-0.71
		l2.1,0.04c1.23,0.02,1.69,1.69,0.8,3.09c-2.74,4.11-10.71,17.39-7.09,18.38c1.84,0.28,5.1-1.99,9.01-6.38
		c3.47-3.92,6.33-8.09,6.33-8.15c0.32-0.48,1-0.66,1.48-0.28C434.17,353.99,434.34,354.61,434.02,355.16z M422.56,345.24
		c0,0-0.84-1.55,0.06-3.13c0.95-1.64,2.49-1.3,3.22-0.73c0.73,0.57,1.44,2.05-0.87,3.54c0,0-0.75,0.54-1.07,0.83
		C423.47,346.12,422.8,345.86,422.56,345.24z"/>
	<path d="M448.11,354.82c-1.1,2.62-2.71,5.71-2.71,5.71c-1.92,3.58-3.92,7.96-2.02,8.49c1.84,0.28,5.1-1.99,9.07-6.38
		c3.41-3.92,6.27-8.09,6.27-8.15c0.32-0.48,1-0.65,1.48-0.28c0.55,0.32,0.66,0.94,0.34,1.48c-0.13,0.18-2.92,4.36-6.52,8.33
		c-4.29,4.89-7.67,7.21-10.38,7.16c-0.25,0-0.49-0.01-0.74-0.08c-0.49-0.07-1.23-0.27-2.08-0.72c-4.21-2.17-1.05-9.35-1.05-9.35
		s1.49-3.71,4.17-8.2c0.76-1.27,1.22-2.43,0.85-2.74c-0.06,0-0.19,0-0.31-0.01c-1.12,0.59-2.31,1.68-2.88,2.22
		c-1.82,1.68-3.97,4.09-6.31,7.24c-4.05,5.25-7.43,10.77-7.49,10.83c-0.19,0.3-0.57,0.48-0.94,0.47c-0.06,0-0.06,0-0.12,0
		c-5.42-0.17,7.28-21.63,7.28-21.63c0.26-0.48,0.57-0.91,0.83-1.4c0.25-0.3,0.63-0.54,1-0.53l2.28,0.05
		c1.66,0.03,1.26,1.81,0.87,2.41c0,0-1.91,3.03-4.08,6.79c1.9-2.41,3.66-4.34,5.18-5.79c2.57-2.4,4.69-3.46,6.35-3.25
		c0,0,0.62,0.07,0.98,0.27C449.71,348.72,449.4,351.97,448.11,354.82z"/>
	<path d="M488.19,381.62c-1.63,1.44-4.05,2.5-6.97,3.05c-2.48,0.45-5.25,0.51-8.4,0.27c-3.2-0.25-6.76-0.93-10.57-1.99
		c-3.51,5.94-7.05,9.85-10.53,11.57c-1.37,0.65-2.8,0.98-4.15,0.96c-0.87-0.02-1.72-0.16-2.52-0.42c-1.9-0.66-3.23-1.79-4.01-3.27
		c-0.71-1.36-0.86-3.02-0.34-4.66c0.46-1.28,1.29-2.61,2.42-3.7c1.26-1.2,2.76-2.09,4.56-2.73c2.36-0.88,6.02-1.6,11.12-0.76
		c2.31-4.37,4.25-8.81,5.55-11.97c-0.88,0.9-1.7,1.68-2.51,2.22c-1.12,0.71-2.12,1.12-3.11,1.1c-0.24,0-0.43-0.01-0.67-0.08
		c-0.25-0.07-0.86-0.2-1.47-0.58c-1.41-0.88-3.28-2.88-2.38-7.41c1.3-6.78,9.85-17.71,14.61-14.79c0,0,1.89,0.89,2.07,4.39
		c0.76-1.33,1.66-2.73,2.67-4.06c0.32-0.48,0.82-0.72,1.38-0.71l2.04,0.04c1.23,0.02,1.69,1.69,0.8,3.09
		c-2.74,4.11-10.58,17.21-6.96,18.2c1.84,0.34,5.1-1.92,8.95-6.27c3.47-3.86,6.27-8.03,6.27-8.09c0.32-0.48,1-0.66,1.48-0.28
		c0.55,0.32,0.66,0.94,0.34,1.48c-0.13,0.18-2.93,4.3-6.46,8.27c-4.23,4.83-7.67,7.15-10.32,7.1c-0.19,0-0.37-0.07-0.61-0.07
		c-0.43-0.07-1.36-0.27-2.27-0.72c-0.85,2.13-1.94,4.69-3.3,7.36c-0.51,0.97-1.02,1.94-1.47,2.86c6.81,1.85,12.85,2.4,17.43,1.57
		c1.8-0.34,3.35-0.92,4.6-1.63c2.19-1.42,3.28-3.86,4.29-4.94C490.79,374.99,491.83,378.75,488.19,381.62z M445.35,392.86
		c3.86,1.36,8.54-4.25,12.37-10.92c-1.05-0.14-1.97-0.22-2.9-0.24c-2.77-0.05-4.88,0.45-6.37,0.98c-2.86,1.05-5,2.97-5.66,5.1
		c-0.33,1.1-0.28,2.14,0.19,3.07C443.39,391.72,444.25,392.41,445.35,392.86z M463.97,365.07c0.57-0.66,1.07-1.33,1.52-1.93
		c1.1-2.25,4.67-11.56,2.46-11.91c-2.21-0.35-7.41,6.91-9.24,11.78c-1.64,4.69-0.06,6.01,0.12,6.14
		C460.01,369.11,461.88,367.67,463.97,365.07z"/>
	<path d="M513.05,365.09c0-4,0.6-8.07,1.8-12.2s2.54-7.43,4.01-9.91c1.47-2.48,3-4.41,4.58-5.81c1.58-1.4,3.14-2.42,4.66-3.08
		c1.53-0.66,3.22-0.98,5.09-0.98c3.64,0,6.68,1.34,9.11,4.03c2.44,2.69,3.65,6.58,3.65,11.66c0,5.23-0.84,10.41-2.54,15.53
		c-1.99,6.07-4.76,10.62-8.32,13.65c-2.73,2.31-5.84,3.46-9.33,3.46c-3.58,0-6.6-1.39-9.05-4.18
		C514.28,374.45,513.05,370.41,513.05,365.09z M518.74,366.57c0,2.91,0.48,5.18,1.46,6.81c1.32,2.26,3.28,3.39,5.88,3.39
		c2.28,0,4.34-1.02,6.21-3.07c2.69-2.88,4.71-7.11,6.06-12.67c1.36-5.57,2.03-10.11,2.03-13.64c0-3.4-0.65-5.85-1.97-7.36
		c-1.31-1.51-3.04-2.26-5.18-2.26c-1.56,0-3.02,0.4-4.37,1.2c-1.36,0.79-2.65,2.16-3.89,4.1c-1.75,2.73-3.28,6.82-4.58,12.26
		C519.29,359.99,518.74,363.73,518.74,366.57z"/>
	<path d="M561.38,380.62l7.54-35.74c-3.25,2.54-7.83,4.58-13.72,6.1l1.11-5.29c2.92-1.16,5.81-2.68,8.66-4.55
		c2.85-1.87,4.99-3.51,6.42-4.9c0.87-0.86,1.69-1.91,2.47-3.13h3.41l-9.98,47.52H561.38z"/>
	<path d="M595.76,353.18c1.65-1.36,3.29-2.37,4.93-3.05c1.64-0.67,3.26-1.02,4.86-1.02c3.62,0,6.61,1.23,8.97,3.68
		c2.36,2.45,3.54,5.76,3.54,9.91c0,5.36-1.76,9.95-5.27,13.78c-3.03,3.3-6.71,4.94-11.05,4.94c-3.94,0-7.23-1.44-9.86-4.31
		c-2.64-2.87-3.95-6.97-3.95-12.29c0-4.75,0.85-9.67,2.54-14.75c1.3-3.9,2.91-7.11,4.83-9.64s3.95-4.39,6.11-5.57
		c2.16-1.18,4.59-1.77,7.3-1.77c3.25,0,5.9,1.01,7.96,3.01c2.06,2.01,3.23,4.89,3.51,8.64l-5.46,0.52c-0.3-2.56-1.03-4.41-2.19-5.55
		c-1.16-1.14-2.58-1.71-4.24-1.71c-1.75,0-3.53,0.68-5.3,2.04c-1.78,1.36-3.31,3.36-4.58,6.02
		C597.12,348.72,596.24,351.09,595.76,353.18z M593.72,367.32c0,2.67,0.84,4.91,2.5,6.73c1.67,1.82,3.55,2.73,5.66,2.73
		c1.47,0,3.03-0.56,4.68-1.66c1.65-1.11,3.05-2.79,4.19-5.05c1.15-2.26,1.72-4.51,1.72-6.75c0-2.88-0.79-5.2-2.38-6.93
		c-1.6-1.73-3.52-2.6-5.77-2.6c-2.6,0-5.02,1.27-7.25,3.8C594.84,360.11,593.72,363.35,593.72,367.32z"/>
	<path d="M623.03,368.22l5.72-0.71c0.43,3.31,1.39,5.68,2.87,7.12c1.48,1.43,3.43,2.15,5.84,2.15c2.9,0,5.41-1.03,7.52-3.1
		c2.11-2.07,3.17-4.44,3.17-7.11c0-2.32-0.79-4.24-2.37-5.76c-1.58-1.52-3.7-2.28-6.37-2.28c-0.3,0-0.93,0.04-1.89,0.13l1.01-4.88
		c0.57,0.08,1.11,0.13,1.62,0.13c3.36,0,5.94-0.82,7.75-2.44c1.81-1.62,2.72-3.62,2.72-5.99c0-2.17-0.74-4-2.23-5.49
		c-1.48-1.48-3.3-2.23-5.44-2.23c-2.1,0-3.99,0.76-5.67,2.28c-1.68,1.52-2.76,3.67-3.23,6.44l-5.79-1.16
		c0.95-3.9,2.78-6.91,5.49-9.04c2.7-2.13,5.92-3.19,9.62-3.19c3.9,0,7.06,1.17,9.47,3.51c2.41,2.35,3.62,5.23,3.62,8.65
		c0,2.5-0.66,4.68-1.97,6.54s-3.27,3.41-5.9,4.63c1.87,1.1,3.26,2.42,4.18,3.97c0.92,1.55,1.38,3.32,1.38,5.32
		c0,4.24-1.6,7.92-4.8,11.03c-3.19,3.11-7.01,4.67-11.45,4.67c-4.31,0-7.8-1.2-10.45-3.6C624.81,375.43,623.33,372.22,623.03,368.22
		z"/>
	<path d="M676.3,380.62l2.57-12.07h-19.43l1.23-5.78l26.69-29.48h4.81l-6.34,30.09h6.7l-1.07,5.17h-6.7l-2.56,12.07H676.3z
		 M679.95,363.38l4.16-19.76l-17.75,19.76H679.95z"/>
	<path d="M697.33,380.62c0.6-2.82,1.45-5.18,2.52-7.08c1.07-1.91,2.5-3.71,4.27-5.43c1.78-1.71,5.2-4.58,10.27-8.6
		c3.08-2.43,5.18-4.23,6.3-5.39c1.63-1.68,2.81-3.32,3.55-4.94c0.49-1.1,0.74-2.29,0.74-3.58c0-2.18-0.77-4.02-2.32-5.54
		c-1.55-1.52-3.45-2.28-5.7-2.28c-2.23,0-4.18,0.77-5.85,2.31c-1.66,1.54-2.86,4.01-3.57,7.41l-5.76-0.84
		c0.57-4.19,2.21-7.51,4.93-9.92c2.72-2.42,6.11-3.63,10.15-3.63c2.71,0,5.16,0.56,7.37,1.68c2.2,1.12,3.85,2.69,4.95,4.71
		c1.11,2.02,1.66,4.12,1.66,6.26c0,3.14-1.13,6.17-3.38,9.08c-1.39,1.8-5.46,5.37-12.22,10.68c-2.9,2.28-5.06,4.16-6.48,5.62
		c-1.42,1.46-2.49,2.84-3.2,4.13h21.32l-1.14,5.36H697.33z"/>
	<path d="M734.35,380.62c0.6-2.82,1.45-5.18,2.52-7.08c1.07-1.91,2.5-3.71,4.27-5.43c1.78-1.71,5.2-4.58,10.27-8.6
		c3.08-2.43,5.18-4.23,6.3-5.39c1.63-1.68,2.81-3.32,3.55-4.94c0.49-1.1,0.74-2.29,0.74-3.58c0-2.18-0.77-4.02-2.32-5.54
		c-1.55-1.52-3.45-2.28-5.7-2.28c-2.23,0-4.18,0.77-5.85,2.31c-1.66,1.54-2.86,4.01-3.57,7.41l-5.76-0.84
		c0.57-4.19,2.21-7.51,4.93-9.92c2.72-2.42,6.11-3.63,10.15-3.63c2.71,0,5.16,0.56,7.37,1.68c2.2,1.12,3.85,2.69,4.95,4.71
		c1.11,2.02,1.66,4.12,1.66,6.26c0,3.14-1.13,6.17-3.38,9.08c-1.39,1.8-5.46,5.37-12.22,10.68c-2.9,2.28-5.06,4.16-6.48,5.62
		c-1.42,1.46-2.49,2.84-3.2,4.13h21.32l-1.14,5.36H734.35z"/>
	<path d="M771.1,368.22l5.72-0.71c0.43,3.31,1.39,5.68,2.87,7.12s3.43,2.15,5.84,2.15c2.9,0,5.41-1.03,7.52-3.1
		c2.11-2.07,3.17-4.44,3.17-7.11c0-2.32-0.79-4.24-2.37-5.76c-1.58-1.52-3.7-2.28-6.37-2.28c-0.3,0-0.93,0.04-1.89,0.13l1.01-4.88
		c0.57,0.08,1.11,0.13,1.63,0.13c3.36,0,5.94-0.82,7.75-2.44c1.81-1.62,2.72-3.62,2.72-5.99c0-2.17-0.74-4-2.23-5.49
		c-1.48-1.48-3.3-2.23-5.44-2.23c-2.1,0-3.99,0.76-5.67,2.28c-1.68,1.52-2.76,3.67-3.23,6.44l-5.79-1.16
		c0.95-3.9,2.78-6.91,5.49-9.04c2.7-2.13,5.92-3.19,9.62-3.19c3.9,0,7.06,1.17,9.47,3.51c2.41,2.35,3.62,5.23,3.62,8.65
		c0,2.5-0.66,4.68-1.97,6.54c-1.31,1.86-3.27,3.41-5.9,4.63c1.87,1.1,3.26,2.42,4.18,3.97c0.92,1.55,1.38,3.32,1.38,5.32
		c0,4.24-1.6,7.92-4.8,11.03c-3.19,3.11-7.01,4.67-11.45,4.67c-4.31,0-7.8-1.2-10.45-3.6C772.89,375.43,771.41,372.22,771.1,368.22z
		"/>
	<path d="M808.12,368.22l5.72-0.71c0.43,3.31,1.39,5.68,2.87,7.12c1.48,1.43,3.43,2.15,5.84,2.15c2.9,0,5.41-1.03,7.52-3.1
		c2.11-2.07,3.17-4.44,3.17-7.11c0-2.32-0.79-4.24-2.37-5.76c-1.58-1.52-3.7-2.28-6.37-2.28c-0.3,0-0.93,0.04-1.89,0.13l1.01-4.88
		c0.57,0.08,1.11,0.13,1.62,0.13c3.36,0,5.94-0.82,7.75-2.44c1.81-1.62,2.72-3.62,2.72-5.99c0-2.17-0.74-4-2.23-5.49
		c-1.48-1.48-3.3-2.23-5.44-2.23c-2.1,0-3.99,0.76-5.67,2.28c-1.68,1.52-2.76,3.67-3.23,6.44l-5.79-1.16
		c0.95-3.9,2.78-6.91,5.49-9.04c2.7-2.13,5.92-3.19,9.62-3.19c3.9,0,7.06,1.17,9.47,3.51c2.41,2.35,3.62,5.23,3.62,8.65
		c0,2.5-0.66,4.68-1.97,6.54s-3.27,3.41-5.9,4.63c1.87,1.1,3.26,2.42,4.18,3.97c0.92,1.55,1.38,3.32,1.38,5.32
		c0,4.24-1.6,7.92-4.8,11.03s-7.01,4.67-11.45,4.67c-4.31,0-7.8-1.2-10.45-3.6C809.91,375.43,808.43,372.22,808.12,368.22z"/>
	<path d="M845.14,368.22l5.72-0.71c0.43,3.31,1.39,5.68,2.87,7.12s3.43,2.15,5.84,2.15c2.9,0,5.41-1.03,7.52-3.1
		c2.11-2.07,3.17-4.44,3.17-7.11c0-2.32-0.79-4.24-2.37-5.76c-1.58-1.52-3.7-2.28-6.37-2.28c-0.3,0-0.93,0.04-1.89,0.13l1.01-4.88
		c0.57,0.08,1.11,0.13,1.62,0.13c3.36,0,5.94-0.82,7.75-2.44c1.81-1.62,2.72-3.62,2.72-5.99c0-2.17-0.74-4-2.23-5.49
		c-1.48-1.48-3.3-2.23-5.44-2.23c-2.1,0-3.99,0.76-5.67,2.28c-1.68,1.52-2.76,3.67-3.23,6.44l-5.79-1.16
		c0.95-3.9,2.78-6.91,5.49-9.04c2.7-2.13,5.92-3.19,9.62-3.19c3.9,0,7.06,1.17,9.47,3.51c2.41,2.35,3.62,5.23,3.62,8.65
		c0,2.5-0.66,4.68-1.97,6.54s-3.27,3.41-5.9,4.63c1.87,1.1,3.26,2.42,4.18,3.97c0.92,1.55,1.38,3.32,1.38,5.32
		c0,4.24-1.6,7.92-4.8,11.03c-3.19,3.11-7.01,4.67-11.45,4.67c-4.31,0-7.8-1.2-10.45-3.6C846.92,375.43,845.44,372.22,845.14,368.22
		z"/>
	<path d="M891.91,353.18c1.65-1.36,3.29-2.37,4.93-3.05c1.64-0.67,3.26-1.02,4.86-1.02c3.62,0,6.61,1.23,8.97,3.68
		c2.36,2.45,3.54,5.76,3.54,9.91c0,5.36-1.76,9.95-5.27,13.78c-3.03,3.3-6.71,4.94-11.05,4.94c-3.94,0-7.23-1.44-9.86-4.31
		c-2.64-2.87-3.95-6.97-3.95-12.29c0-4.75,0.85-9.67,2.54-14.75c1.3-3.9,2.91-7.11,4.83-9.64c1.92-2.53,3.95-4.39,6.11-5.57
		c2.16-1.18,4.59-1.77,7.3-1.77c3.25,0,5.9,1.01,7.96,3.01c2.06,2.01,3.23,4.89,3.51,8.64l-5.46,0.52c-0.3-2.56-1.03-4.41-2.19-5.55
		c-1.16-1.14-2.58-1.71-4.24-1.71c-1.75,0-3.53,0.68-5.3,2.04c-1.78,1.36-3.31,3.36-4.58,6.02
		C893.27,348.72,892.39,351.09,891.91,353.18z M889.86,367.32c0,2.67,0.84,4.91,2.5,6.73c1.67,1.82,3.55,2.73,5.66,2.73
		c1.47,0,3.03-0.56,4.68-1.66c1.65-1.11,3.05-2.79,4.19-5.05c1.15-2.26,1.72-4.51,1.72-6.75c0-2.88-0.79-5.2-2.38-6.93
		c-1.6-1.73-3.52-2.6-5.77-2.6c-2.6,0-5.02,1.27-7.25,3.8C890.98,360.11,889.86,363.35,889.86,367.32z"/>
	<g>
		<g>
			<g>
				<g>
					<g>
						<path d="M246.39,81.12c-1.05,0.62-1.7-0.81-1.62-1.5c0.03-0.8,0.45-1.36,0.78-1.7c0.66-0.71,0.91-1,0.84-1.32
							c-0.03-0.48-1.47-1.04,1.47-1.42c1.45-0.04,3.19,0.83,4.22,2.72c0.85,1.74,1.37,4.17,0.59,7.04c-0.7,2.89-3.34,5.76-8.08,7.04
							c-4.63,1.4-11.25-0.11-18.52-4.35c1.55,0.68,4,1.9,7.18,2.92c3.14,1,7.16,1.82,10.92,0.65c1.79-0.52,3.82-1.69,5.06-2.97
							c1.25-1.34,1.91-3.28,1.72-5.24c-0.1-0.97-0.41-1.94-0.93-2.84c-0.38-0.75-1.06-1.23-1.94-1.42
							c-0.79-0.22-2.06,0.12-2.44,0.63C245.13,79.89,245.29,81.47,246.39,81.12z"/>
					</g>
				</g>
			</g>
			<g>
				<g>
					<g>
						<path d="M238.42,110.88c0.32-0.5,1.14-2.69,0.42-6.15c-0.57-3.34-3.03-7.22-3.05-7.14c-0.03,0.05-2.18-3.83-7.21-7.34
							c-2.49-1.77-5.68-3.29-8.54-4.29c6.9,1.83,13.44,5.44,18.17,10.4c4.77,4.93,7.79,10.85,9.21,16.19
							c2.87,10.89,0.13,18.54,0.29,18.44c0-0.01-0.43,2.15-1.82,5.61c-1.4,3.43-4.16,8.16-9.1,12.03
							c-4.85,3.86-11.92,6.67-19.46,6.37c-7.46-0.24-15.37-3.45-19.97-9.52c0.16,0.2,0.35,0.39,0.53,0.59
							c-2.2-3.11-3.28-5.35-4.28-9.47c-0.72-2.17-0.9-9.36,2.02-13.97c2.66-4.72,6.4-5.89,6.27-5.96c-0.05,0,3.5-1.54,6.17-0.88
							c2.76,0.51,3.83,2.11,4.04,2.59c0.45,0.86,0.77,1.46,1.13,2.26c0.59-0.63,1.01-1.12,0.73-2.16c-0.12-0.53-0.96-2.44-3.86-3.45
							c-2.76-1.1-6.91,0.02-6.82,0.1c0.13,0.03-4.17,0.86-7.53,5.77c-2.96,4.05-3.75,10.52-3.18,13.76
							c-1.05-6.29,0.59-12.34,3.29-16.36c2.76-4.06,6.35-6.07,8.62-7c15.42-5.63,27.88,7.02,22.91,20.08
							c2.73-6.37,0.98-13.14-3.44-17.43c-4.44-4.23-11.86-6.3-19.72-3.29c-2.72,1.11-7.49,3.82-10.28,9.62
							c-2.82,5.58-3.53,13.85,0.07,21.16c1.74,3.62,4.48,6.92,7.9,9.32c3.42,2.42,7.47,3.86,11.53,4.55
							c8.2,1.41,16.43-0.94,22.13-4.93c-2.44,1.97-5.7,3.84-8.83,5.1c-6.09,2.46-11.32,2.65-11.29,2.69
							c0.05,0.05-5.3,0.42-9.71-0.07c-4.63-0.46-7.89-1.07-8.65-0.97c-1.58,0.01-1.53,0.76-0.72,2.29c1.83,0.29,3.02,0.42,4.55,0.23
							c0.78-0.14,3.78-0.1,8.06-0.11c4.18,0.06,9.21-0.71,9.16-0.75c-0.02-0.05,4.9-0.61,10.57-3.29
							c5.72-2.47,11.09-7.67,12.52-9.64c1.71-2.07,2.73-3.77,3.61-5.55c2.94-5.4,3.48-9.21,3.55-9.17
							c-0.12,0.03,1.82-5.5,0.67-14.17c-1.02-8.52-6.54-20.09-17.19-26.67c-10.49-6.62-24.13-8.1-34.68-5.47
							c-10.72,2.43-18.04,8.18-21.26,11.14c-6.08,5.59-9.45,11.31-11.76,16.93c-2.27,5.64-3.64,11.31-4.11,18.12
							c0.68-6.79,2.22-12.37,4.57-17.93c2.4-5.51,5.77-11.11,11.76-16.6c2.07-1.89,5.69-4.86,10.9-7.41
							c5.17-2.54,11.97-4.61,19.44-4.75c1.84,0.05,3.7,0.21,6.13,0.56c2.32,0.23,9.27,2,13.92,5.11c4.78,3.02,6.99,6.46,7.02,6.41
							c-0.02-0.04,2.52,3.33,3.26,6.39c0.93,3.12,0.32,5.24,0.09,5.74c-0.45,1.05-0.61,1.78-0.99,2.87
							C237.18,111.82,237.85,111.92,238.42,110.88z"/>
					</g>
				</g>
			</g>
			<g>
				<g>
					<g>
						<path d="M218.9,98.9c-2.95-2.18-5.07-2.79-6.31-2.93c-1.25-0.15-1.69,0.2-1.88,0.61c-0.35,0.82,0.23,1.92-1.97,1.21
							c-2.2-0.45-4.57-3.78-13.05-4.2c-4.14-0.07-9.82,0.81-16.23,4.52c-6.22,3.6-13.79,10.41-16.9,21.41
							c0.32-2.23,1.35-5.89,3.86-10.05c2.51-4.12,6.53-8.68,12.09-12.29c5.51-3.6,12.57-6.32,20.16-6.46
							C206.18,90.42,214.25,93.36,218.9,98.9z"/>
					</g>
				</g>
			</g>
		</g>
		<g>
			<g>
				<path d="M208.6,51.57c0.69,1.88,0.85,3.97,0.41,5.89c-0.42,1.84-1.36,3.42-2.55,4.53c-1.13,1.05-2.47,1.69-3.73,1.91
					c-1.19,0.21-2.32,0.07-3.23-0.3c-0.85-0.34-1.5-0.87-1.93-1.44c-0.88-1.18-0.91-2.72,0.11-3.82c0.77-0.82,2.06-0.86,2.87-0.09
					c0.82,0.77,0.86,2.06,0.09,2.88c-0.2,0.21-0.43,0.37-0.68,0.48c0.41,0.12,0.88,0.18,1.38,0.15c0.89-0.05,1.88-0.39,2.76-1.06
					c0.94-0.71,1.76-1.81,2.2-3.15c0.47-1.43,0.49-3.05,0.08-4.57c-0.43-1.6-1.33-3.08-2.51-4.25c-2.5-2.46-6.15-3.37-9.18-3.08
					c-2.96,0.28-5.33,1.55-6.9,2.68c0.09-0.03,0.19-0.05,0.29-0.07c1.18-0.23,2.68,0.01,3.81,0.94c0.54,0.45,0.99,1.05,1.24,1.73
					c0.24,0.66,0.29,1.38,0.14,2.05c-0.15,0.64-0.48,1.18-0.89,1.57c-0.39,0.37-0.86,0.59-1.3,0.67c-0.41,0.08-0.81,0.02-1.12-0.1
					c-0.3-0.12-0.52-0.31-0.67-0.5c-0.31-0.41-0.32-0.95,0.04-1.33c0.27-0.29,0.72-0.3,1-0.03c0.29,0.27,0.3,0.72,0.03,1
					c-0.06,0.07-0.15,0.13-0.24,0.16c0.15,0.04,0.31,0.07,0.48,0.05c0.31-0.02,0.66-0.13,0.97-0.37c0.33-0.24,0.61-0.63,0.77-1.1
					c0.16-0.5,0.17-1.06,0.03-1.59c-0.15-0.55-0.47-1.07-0.87-1.48c-0.87-0.85-2.14-1.17-3.2-1.07c-0.82,0.08-1.51,0.38-2.04,0.69
					c-0.8,0.7-1.21,1.14-1.32,1.09c-0.01-0.01-0.02-0.02-0.03-0.04c-0.01,0-0.01,0-0.01,0c-0.02-0.01-0.02-0.07,0.03-0.16
					c0.11-0.39,0.64-1.32,1.76-2.5c1.42-1.5,3.93-3.37,7.43-4.04c3.39-0.66,7.72,0.01,10.95,2.7
					C206.63,47.9,207.9,49.63,208.6,51.57z"/>
			</g>
		</g>
		<g>
			<g>
				<path d="M161.15,111.79c-0.01,0.12-0.02,0.21-0.02,0.25c-0.03,0.17-0.01-0.52-0.2-1.92c-0.03-0.18-0.07-0.37-0.1-0.57
					c-0.26-1.38-0.73-3.13-1.46-4.91c-0.56-1.34-1.26-2.69-2.03-3.83c-0.62-0.92-1.32-1.73-1.99-2.33c-1.08-0.95-2.01-1.15-2.6-1.31
					c-0.54-0.16-0.88-0.32-0.84-0.49c0.06-0.28,1.1-0.74,2.35-0.25c-0.37-0.25-0.77-0.49-1.18-0.7c-0.6-0.29-1.24-0.54-1.85-0.68
					c-1.02-0.24-1.8-0.14-2.31-0.09c-0.47,0.04-0.79,0.04-0.8-0.06c-0.01-0.2,1.23-0.9,2.94-0.52c0.57,0.13,1.17,0.35,1.74,0.62
					c0.69,0.34,1.36,0.78,1.94,1.26c0.67,0.56,1.21,1.17,1.59,1.73c0.34,0.37,0.67,0.79,0.99,1.24c0.19,0.27,0.38,0.55,0.56,0.85
					c-0.14-0.32-0.29-0.64-0.45-0.95c-0.85-1.75-1.87-3.51-2.9-4.98c-1.87-2.65-3.42-3.65-4.48-4.43c-1.02-0.75-1.73-1.43-1.78-1.91
					c-0.07-0.77,1.57-1.35,3.96,0.92c-0.73-0.94-1.53-1.89-2.39-2.82c-1.3-1.4-2.76-2.76-4.16-3.85c-2.53-1.96-4.3-2.43-5.54-2.86
					c-1.19-0.41-2.07-0.84-2.24-1.28c-0.35-0.89,2.03-2.34,6.78,1.43c1.4,1.12,2.85,2.52,4.18,4c1.51,1.68,2.9,3.48,4.05,5.2
					c1.23,1.83,2.18,3.56,2.82,4.97c0.51,0.91,1.01,1.87,1.46,2.84c0.98,2.08,1.81,4.25,2.43,6.26c0.69,2.21,1.12,4.23,1.35,5.82
					c0.37,2.17,0.33,3.57,0.29,3.82C161.2,112.36,161.19,112.2,161.15,111.79z"/>
			</g>
		</g>
		<g>
			<g>
				<path d="M179.82,109.31c1.26,1.08,2.22,2.52,2.68,4.08c0.44,1.5,0.4,3.02-0.01,4.3c-0.38,1.22-1.09,2.22-1.92,2.89
					c-0.78,0.63-1.65,0.99-2.46,1.09c-0.75,0.1-1.44-0.02-1.97-0.26c-1.11-0.49-1.77-1.6-1.47-2.8c0.22-0.91,1.14-1.45,2.04-1.24
					c0.9,0.22,1.45,1.14,1.23,2.05c-0.06,0.23-0.16,0.44-0.3,0.62c0.35-0.08,0.71-0.23,1.06-0.45c0.62-0.4,1.2-1.04,1.57-1.88
					c0.39-0.9,0.53-2.02,0.31-3.17c-0.24-1.22-0.88-2.4-1.79-3.33c-0.96-0.98-2.21-1.68-3.54-2.05c-2.8-0.76-5.8,0.06-7.87,1.5
					c-2.03,1.41-3.21,3.28-3.89,4.73c0.06-0.06,0.12-0.12,0.18-0.17c0.76-0.64,1.94-1.08,3.14-0.87c0.57,0.11,1.13,0.37,1.59,0.75
					c0.44,0.38,0.77,0.88,0.93,1.43c0.15,0.52,0.14,1.05,0,1.5c-0.13,0.42-0.38,0.78-0.67,1.01c-0.27,0.22-0.58,0.34-0.85,0.38
					c-0.26,0.03-0.5-0.01-0.69-0.09c-0.38-0.17-0.61-0.55-0.51-0.97c0.08-0.31,0.4-0.51,0.71-0.43c0.31,0.08,0.51,0.39,0.43,0.71
					c-0.02,0.08-0.06,0.15-0.11,0.22c0.12-0.03,0.25-0.08,0.37-0.16c0.21-0.14,0.42-0.36,0.55-0.65c0.13-0.31,0.18-0.7,0.1-1.11
					c-0.08-0.42-0.3-0.84-0.62-1.16c-0.33-0.34-0.76-0.59-1.23-0.71c-0.97-0.27-2.02,0.02-2.74,0.52c-0.56,0.39-0.94,0.88-1.19,1.32
					c-0.3,0.83-0.41,1.32-0.51,1.32c-0.01,0-0.03-0.01-0.03-0.02l-0.01,0.01c-0.02,0-0.04-0.04-0.04-0.13
					c-0.08-0.32-0.07-1.21,0.26-2.51c0.42-1.66,1.47-4.02,3.72-5.93c2.18-1.84,5.58-3.12,9-2.49
					C176.91,107.46,178.52,108.2,179.82,109.31z"/>
			</g>
		</g>
		<g>
			<path d="M215.08,6.25c-3.69-0.35-5.93,1.78-7.3,5.05l0.08,0.02c2.56-0.44,5.22-2.88,7.88-1.78c-3.56-0.23-7.48,1.89-8.87,5.24
				c2.8-1.06,5.87,0.74,8.83-0.61c1.36-0.67,2.09-2.16,2.91-3.39c0.97-1.44,1.71-2.34,3.14-3.33
				C219.21,7.81,217.45,6.52,215.08,6.25z"/>
		</g>
		<g>
			<path d="M162.2,76.43c3.25,2.76,3.31,6.31,1.71,10.06l-0.08-0.05c-1.69-2.46-1.82-6.61-4.85-7.91c3.05,2.74,4.45,7.67,2.81,11.5
				c-1.38-3.15-5.31-4.23-6.58-7.76c-0.54-1.65,0.1-3.45,0.45-5.12c0.41-1.95,0.56-3.29,0.21-5.26
				C157.61,74.28,160.08,74.7,162.2,76.43z"/>
		</g>
		<g>
			<g>
				<path d="M161.48,114.04c0.29-3.28-0.71-6.47-2.83-9c-1.04-1.25-2.31-2.26-3.7-3c-0.05-0.03-0.1-0.06-0.15-0.09
					c-0.2-0.12-0.46-0.23-0.77-0.35c-1.17-0.5-2.43-0.81-3.74-0.93c-3.27-0.29-6.47,0.72-8.99,2.83c-2.53,2.11-4.07,5.08-4.36,8.36
					c-0.29,3.28,0.71,6.47,2.83,8.99c2.11,2.52,5.08,4.07,8.36,4.36c3.27,0.29,6.47-0.72,8.99-2.83
					C159.64,120.28,161.18,117.31,161.48,114.04z M141,120.41c-4.09-4.88-3.44-12.15,1.44-16.24c2.11-1.76,4.66-2.65,7.2-2.69
					c-1,0.33-1.96,0.97-2.75,2.07c-1.1,1.52-1.39,3.88-0.35,5.66c0.97,1.65,3.2,2.64,5.01,2.03c1.67-0.56,2.73-2.51,2.25-3.98
					c-0.43-1.32-2-1.9-2.81-1.42c-0.63,0.36-0.48,0.98-0.23,0.92c0.43-0.11,1.3-0.14,1.67,0.57c0.44,0.84-0.16,2.21-1.28,2.63
					c-1.29,0.47-3-0.28-3.71-1.62c-1.65-3.11,1.92-6.24,4.09-6.46c0.47-0.05,0.91-0.04,1.32,0c2.2,0.59,4.25,1.84,5.83,3.72
					c4.09,4.88,3.45,12.15-1.44,16.24C152.36,125.93,145.09,125.29,141,120.41z"/>
			</g>
		</g>
		<g>
			<path d="M67.22,157.98c-2.79-4.47-1.51-8.68,1.78-12.5l0.08,0.09c1.06,3.54-0.35,8.47,2.73,11.15
				c-2.55-4.38-2.35-10.72,1.04-14.62c0.44,4.24,4.66,7,4.83,11.63c0.01,2.14-1.43,4.02-2.46,5.86c-1.22,2.15-1.9,3.67-2.24,6.12
				C71.83,162.24,69.07,160.82,67.22,157.98z"/>
		</g>
		<g>
			<path d="M60.77,144.56c1.03-2.55,3.19-3.3,5.81-3.09l-0.01,0.06c-1.17,1.53-3.67,2.45-3.86,4.57c1.06-2.42,3.79-4.28,6.47-4.05
				c-1.65,1.48-1.51,4.11-3.41,5.6c-0.9,0.66-2.13,0.64-3.22,0.76c-1.27,0.15-2.12,0.33-3.26,0.94
				C60.39,147.81,60.14,146.21,60.77,144.56z"/>
		</g>
		<g>
			<g>
				<g>
					<path d="M107.21,87.13c0.15,1.55,2.11,1.13,2.75,0.53c0.8-0.63,1.05-1.48,1.15-2.06c0.24-1.21,0.34-1.68,0.72-1.85
						c0.51-0.33,2.17,0.72,0.36-2.58c-1.04-1.51-3.24-2.64-5.95-2.28c-2.42,0.44-5.3,1.73-7.65,4.68
						c-2.43,2.88-3.39,7.73-1.15,13.56c2.05,5.8,8.56,11.43,18.34,15.7c-1.86-1.08-4.94-2.67-8.37-5.16
						c-3.38-2.46-7.23-5.96-8.86-10.68c-0.81-2.23-1.13-5.19-0.75-7.42c0.43-2.28,1.93-4.42,4.07-5.69
						c1.08-0.63,2.31-1.04,3.61-1.18c1.05-0.17,2.06,0.16,2.91,0.92c0.82,0.64,1.43,2.21,1.19,2.97
						C109.42,87.51,107.67,88.52,107.21,87.13z"/>
				</g>
			</g>
		</g>
		<g>
			<g>
				<g>
					<path d="M82.71,117.63c0.28-0.7,1.9-3.19,5.98-5.05c3.85-1.92,9.67-2.31,9.61-2.23c-0.03,0.06,5.56-0.64,12.92,1.88
						c3.68,1.23,7.63,3.35,10.79,5.52c-7.04-5.69-15.64-9.69-24.28-10.8c-8.62-1.2-16.95,0.16-23.49,2.72
						c-13.31,5.23-19.08,13.78-19.1,13.53c0,0-1.87,2.06-4.39,6.08c-2.45,4-5.24,10.38-5.49,18.34c-0.32,7.87,2.11,17.22,8.08,24.7
						c5.83,7.46,15.05,13.14,24.72,13.31c-0.33-0.02-0.66-0.07-1-0.11c4.84-0.09,7.94-0.66,12.91-2.74
						c2.76-0.88,10.27-6.09,12.8-12.54c2.84-6.27,1.23-10.98,1.4-10.89c0.03,0.05-1.05-4.75-3.72-6.98c-2.6-2.44-5.04-2.34-5.68-2.2
						c-1.23,0.18-2.08,0.31-3.18,0.54c0.2-1.07,0.39-1.88,1.67-2.37c0.63-0.28,3.21-0.84,6.42,1.36c3.2,2.01,5.16,7.1,5.02,7.06
						c-0.13-0.1,2.24,4.92-0.27,12.04c-1.92,6.07-7.95,11.73-11.69,13.58c7.24-3.64,12.19-9.86,14.28-15.64
						c2.09-5.88,1.44-11.05,0.7-14.07c-5.8-20.01-28.1-23.28-37.75-8.39c4.47-7.58,12.72-10.86,20.43-9.55
						c7.67,1.38,15.35,7.41,18.17,17.72c0.89,3.62,1.7,10.53-2.14,17.74c-3.59,7.09-11.53,14.01-21.71,15.8
						c-5.02,0.94-10.44,0.6-15.47-1.1c-5.04-1.69-9.56-4.75-13.31-8.39c-7.59-7.34-11.36-17.53-11.55-26.36
						c-0.18,3.98,0.33,8.72,1.4,12.87c2.05,8.08,5.77,13.57,5.72,13.58c-0.1-0.02,3.55,5.74,7.36,9.88
						c3.94,4.39,7.01,7.28,7.49,8.13c1.18,1.63,0.36,2.14-1.81,2.46c-1.66-1.66-2.7-2.77-3.65-4.48c-0.44-0.91-2.73-3.95-5.93-8.35
						c-3.2-4.24-6.19-9.96-6.11-9.93c0.06-0.02-3.06-5.48-4.56-13.29c-1.76-7.71-0.47-17.12,0.47-20.05
						c0.85-3.3,1.83-5.62,2.98-7.86c3.33-7.06,6.81-10.47,6.73-10.51c0.05,0.15,4.27-5.99,14.01-11.31
						c9.49-5.35,25.48-8.37,40.21-2.41c14.64,5.77,26.4,18.64,31.62,31.41c5.55,12.79,5.16,24.6,4.54,30.12
						c-1.17,10.41-4.5,18.16-8.51,24.73c-4.08,6.56-8.85,12.22-15.47,17.8c6.44-5.79,11-11.55,14.93-18.13
						c3.84-6.59,7.04-14.24,8.18-24.5c0.38-3.54,0.71-9.48-0.6-16.72c-1.27-7.21-4.26-15.72-9.72-23.47
						c-1.43-1.85-2.99-3.63-5.18-5.86c-1.98-2.21-9-7.98-15.67-10.41c-6.67-2.63-11.86-2.31-11.83-2.38
						c0.06-0.01-5.3-0.08-8.99,1.46c-3.89,1.4-5.6,3.6-5.95,4.22c-0.73,1.24-1.37,1.96-2.2,3.16
						C82.69,119.6,82.08,118.99,82.71,117.63z"/>
				</g>
			</g>
		</g>
		<g>
			<g>
				<g>
					<path d="M109.88,128.81c4.44,1.39,6.66,3.1,7.73,4.26c1.08,1.16,1.06,1.88,0.78,2.38c-0.57,0.98-2.14,1.2,0.25,2.93
						c2.12,1.92,7.29,1.85,14.08,10.22c3.18,4.2,6.55,10.67,7.56,20.01c0.97,9.08-0.31,21.93-9.24,33.36
						c2.04-2.01,5.02-5.79,7.39-11.49c2.34-5.66,3.99-13.21,3.52-21.6c-0.45-8.34-2.97-17.61-8.51-25.49
						C128.1,135.48,119.04,129.42,109.88,128.81z"/>
				</g>
			</g>
		</g>
		<g>
			<g>
				<g>
					<g>
						<path d="M122.36,30.15c0.51,0.25,0.79-0.49,0.53-0.83c-0.23-0.38-0.76-0.39-1.08-0.3c-0.71,0.29-0.89,1.01-0.88,1.44
							c0.05,0.94,0.36,1.23,0.22,1.41c-0.08,0.18-0.4,0.13-0.43,0.28c-0.04,0.12,0.29,0.77,1.73,1.04c1.41,0.28,3.37-0.92,3.55-2.91
							c0.41-1.86-1.26-4.56-4.18-4.4c-1.36,0.05-2.96,0.7-3.8,2.2c-0.88,1.47-1.19,3.66-0.25,5.71c0.86,2.06,3.25,3.71,6.29,4.01
							c2.95,0.35,6.73-0.89,8.98-4.33c-0.95,1.26-2.87,3.21-5.92,3.86c-2.83,0.66-7.26-0.27-8.79-3.59
							c-0.74-1.61-0.69-3.7,0.34-5.22c0.87-1.44,3.02-1.99,4.54-1.09c1.44,0.64,1.39,3.51-0.32,3.56c-0.84,0.1-1.47-0.61-1.12-1.37
							c0.11-0.3,0.6-0.43,0.9-0.25C122.95,29.57,122.88,30.31,122.36,30.15z"/>
					</g>
				</g>
			</g>
			<g>
				<path d="M127.94,41.11c1.8-4.57,5.53-8.84,10.65-11.24c5.07-2.44,11.58-2.9,17.53-0.38c5.94,2.5,11.39,7.48,14.34,14.24
					c3.01,6.7,3.33,15.23-0.17,22.9c1.28-3.05,2.5-7.33,2.27-12.5c-0.22-5.11-1.98-11.13-6.16-16.25c-4.1-5-10.74-9.41-18.35-9.41
					c-7.53-0.14-15.6,4.47-18.91,12.17c-1.65,3.69-1.8,8.09-0.28,11.99c1.46,3.91,4.65,7.23,8.58,8.85
					c3.83,1.58,8.54,0.97,11.89-1.7c3.42-2.61,5.32-7.09,3.93-11.13c-1.23-3.98-5.54-7.18-9.61-6.12c-2.01,0.46-3.83,1.81-4.84,3.68
					c-0.98,1.75-0.95,4.06,0.17,5.82c1.11,1.77,3.19,2.97,5.21,2.56c2-0.33,3.86-2.24,3.75-4.31c0.01-2.08-2.15-4.11-4.29-3.49
					c-1.01,0.29-1.97,1.15-2.2,2.22c-0.28,1.07,0.28,2.3,1.29,2.89c-1.09-0.56-1.7-1.79-1.5-2.88c0.14-1.1,0.96-1.99,1.85-2.42
					c1.87-0.94,3.9,0.04,4.82,1.33c2.03,2.82,0.36,5.72-0.93,6.83c-1.4,1.25-2.67,1.55-3.42,1.76c-0.77,0.19-1.12,0.28-1.22,0.43
					c-0.21,0.3,0.66,0.7,0.36,0.91c-0.15,0.09-0.64,0.21-1.74-0.02c-1.09-0.27-2.74-0.87-4.45-2.79c-1.66-1.93-2.56-4.75-1.95-7.72
					c0.68-2.96,2.78-5.73,6.18-7.15c3.29-1.49,8.12-1,11.4,2.31c3.35,3.03,5.17,9.1,2.14,14.31c-1.45,2.55-3.85,4.81-6.95,6.04
					c-3.07,1.25-6.87,1.41-10.34-0.07c-3.47-1.46-6.69-4.37-8.54-8.26C126.59,50.63,126.11,45.68,127.94,41.11z"/>
			</g>
		</g>
		<g>
			<path d="M67.29,130.27c3.43,1.51,4.36,4.48,3.96,8.03l-0.08-0.02c-2.04-1.64-3.18-5.1-6.06-5.44c3.25,1.54,5.66,5.34,5.24,8.97
				c-1.95-2.3-5.53-2.23-7.48-4.88c-0.86-1.25-0.77-2.93-0.9-4.41c-0.15-1.74-0.36-2.91-1.14-4.48
				C62.89,129.61,65.08,129.34,67.29,130.27z"/>
		</g>
		<g>
			<g>
				<path d="M83.49,237.58c7.82-2.38,18.89-6.35,30.4-14.11c11.54-7.69,22.71-20,30.09-35.51c7.45-15.48,11.38-33.41,14.15-51.21
					c2.79-17.84,4.66-35.76,8.09-52.26c3.24-16.51,8.53-31.51,15.4-43.09c6.82-11.64,14.85-19.71,20.83-24.75
					c2.05-1.7,3.85-3.1,5.32-4.21l-0.04-0.03c-1.49,1.08-3.29,2.46-5.36,4.14c-6.04,4.98-14.18,12.99-21.15,24.61
					c-7.02,11.56-12.49,26.59-15.92,43.14c-3.62,16.52-5.67,34.46-8.64,52.22c-2.95,17.73-7.04,35.44-14.52,50.56
					c-7.38,15.1-18.4,26.98-29.65,34.3c-11.28,7.45-22.12,11.21-29.81,13.47c-7.74,2.19-12.45,2.98-12.79,3.07
					c-1.2,0.25-2.3,0.58-3.14,0.94l2.83,2.14c0.29-0.05,0.59-0.1,0.9-0.16C70.83,240.75,75.61,239.9,83.49,237.58z"/>
			</g>
		</g>
		<g>
			<g>
				<path d="M189.38,42.87c-7.28,9.3-12.61,20.01-16.65,31.09c-7.94,22.3-11.1,45.82-16.27,68.71c-5.11,22.7-12.45,45.99-28.7,63.15
					c-15.97,17.41-39.4,25.8-62.46,28.76c-1.23,0.15-2.26,0.28-2.2,0.71c0.05,0.42,1.06,0.13,2.29-0.02
					c23.15-2.89,46.83-11.17,63.14-28.72c16.58-17.29,24.11-40.82,29.28-63.58c5.23-22.96,8.35-46.42,16.05-68.61
					c3.91-11.03,9.06-21.68,16.13-31.02c6.97-9.42,15.9-17.28,25.81-23.55c0.49-0.31,0.94-0.59,1.27-0.81l-0.01-0.01
					c-0.34,0.21-0.79,0.48-1.29,0.77C205.71,25.76,196.56,33.49,189.38,42.87z"/>
			</g>
		</g>
		<g>
			<g>
				<path d="M70.27,234.87c1.06-0.31,2.08-0.62,3.05-0.94c0.93-0.3,1.82-0.61,2.66-0.93c0.82-0.3,1.6-0.61,2.35-0.92
					c0.72-0.3,1.41-0.6,2.08-0.9c0.64-0.3,1.26-0.59,1.85-0.89c1.13-0.57,2.19-1.15,3.17-1.74c0.92-0.56,1.79-1.11,2.59-1.67
					c0.77-0.54,1.48-1.08,2.15-1.62c0.64-0.52,1.25-1.04,1.81-1.57c0.54-0.51,1.05-1.02,1.53-1.53c0.46-0.5,0.9-1,1.3-1.5
					c0.78-0.96,1.47-1.94,2.06-2.93c0.57-0.95,1.07-1.91,1.49-2.87c0.81-1.87,1.35-3.81,1.6-5.75c0.24-1.94,0.2-3.93-0.19-5.85
					c-0.21-0.99-0.5-1.96-0.89-2.89c-0.41-0.95-0.92-1.87-1.53-2.7c-0.63-0.84-1.38-1.61-2.23-2.23c-0.87-0.64-1.84-1.12-2.89-1.4
					c-2.12-0.56-4.57-0.16-6.54,1.29c-1.97,1.45-3.36,3.93-3.79,6.46c-0.2,1.24-0.19,2.47,0,3.61c0.19,1.1,0.53,2.1,0.98,2.96
					c0.43,0.81,0.96,1.5,1.53,2.03c0.53,0.51,1.11,0.88,1.68,1.12c0.54,0.23,1.08,0.35,1.59,0.38c0.48,0.02,0.93-0.05,1.34-0.18
					c0.38-0.13,0.73-0.32,1.02-0.56c0.28-0.22,0.51-0.49,0.67-0.78c-0.2,0.29-0.48,0.53-0.81,0.72c-0.35,0.19-0.76,0.32-1.21,0.36
					c-0.48,0.03-0.99-0.05-1.5-0.25c-0.55-0.22-1.09-0.59-1.58-1.11c-0.52-0.55-0.98-1.27-1.29-2.12c-0.34-0.9-0.52-1.94-0.5-3.04
					c0.03-1.14,0.28-2.33,0.77-3.42c0.5-1.11,1.23-2.11,2.12-2.87c1.79-1.51,4.16-1.92,6.15-1.28c0.98,0.32,1.88,0.87,2.65,1.57
					c0.75,0.69,1.38,1.53,1.87,2.45c0.96,1.79,1.41,3.89,1.41,5.98c0,2.07-0.43,4.2-1.24,6.21c-0.22,0.66-0.49,1.33-0.8,1.99
					c-0.32,0.68-0.69,1.36-1.11,2.04c-0.43,0.7-0.92,1.4-1.47,2.09c-0.57,0.72-1.21,1.44-1.91,2.14c-0.74,0.75-1.58,1.49-2.48,2.21
					c-0.98,0.77-2.06,1.55-3.27,2.3c-1.31,0.81-2.77,1.61-4.4,2.38c-1.81,0.85-3.85,1.66-6.16,2.43c-2.61,0.86-5.61,1.66-9.07,2.35
					c-1.57,0.32-3.24,0.61-5.05,0.88c0.74-0.52,1.43-1.02,2.09-1.51c0.69-0.52,1.35-1.02,1.96-1.52c0.59-0.47,1.14-0.94,1.67-1.38
					c0.5-0.43,0.97-0.86,1.42-1.27c0.43-0.4,0.84-0.78,1.23-1.17c0.37-0.37,0.73-0.73,1.06-1.08c0.32-0.34,0.63-0.68,0.92-1.01
					c0.55-0.63,1.05-1.25,1.51-1.84c0.43-0.56,0.81-1.11,1.16-1.64c0.33-0.51,0.63-1.01,0.9-1.48c0.25-0.47,0.49-0.91,0.7-1.36
					c0.19-0.42,0.37-0.84,0.52-1.26c0.16-0.39,0.29-0.79,0.4-1.17c0.21-0.74,0.37-1.46,0.47-2.15c0.09-0.67,0.13-1.32,0.12-1.95
					c-0.02-1.22-0.24-2.4-0.64-3.5c-0.4-1.1-1-2.14-1.81-3.04c-0.41-0.46-0.87-0.89-1.39-1.27c-0.53-0.39-1.11-0.72-1.75-0.97
					c-0.64-0.27-1.34-0.45-2.06-0.53c-0.73-0.08-1.49-0.06-2.24,0.1c-1.51,0.33-2.94,1.25-3.78,2.59c-0.83,1.35-1.01,3.06-0.55,4.52
					c0.23,0.71,0.59,1.36,1.04,1.91c0.43,0.52,0.94,0.96,1.47,1.27c0.51,0.31,1.04,0.51,1.55,0.63c0.49,0.11,0.96,0.14,1.39,0.1
					c0.41-0.03,0.79-0.12,1.12-0.26c0.31-0.13,0.58-0.3,0.8-0.49c0.22-0.18,0.38-0.38,0.49-0.6c0.11-0.2,0.18-0.41,0.2-0.6
					c-0.05,0.21-0.15,0.42-0.31,0.61c-0.17,0.21-0.39,0.4-0.67,0.54c-0.29,0.16-0.64,0.26-1.02,0.31c-0.41,0.04-0.87,0.01-1.32-0.12
					c-0.48-0.14-0.99-0.39-1.43-0.75c-0.47-0.37-0.89-0.87-1.19-1.46c-0.31-0.61-0.49-1.31-0.49-2.03
					c-0.01-0.73,0.18-1.47,0.52-2.13c0.7-1.32,2.09-2.23,3.53-2.47c0.72-0.12,1.45-0.09,2.14,0.06c0.68,0.15,1.32,0.4,1.9,0.75
					c1.12,0.66,2.01,1.64,2.62,2.74c0.59,1.09,0.93,2.34,0.99,3.64c0.05,0.42,0.07,0.85,0.06,1.28c0,0.45-0.05,0.92-0.12,1.4
					c-0.07,0.5-0.18,1-0.33,1.53c-0.15,0.55-0.35,1.11-0.6,1.69c-0.26,0.61-0.57,1.24-0.94,1.9c-0.4,0.69-0.87,1.42-1.42,2.16
					c-0.6,0.81-1.29,1.66-2.12,2.54c-0.9,0.97-1.96,2-3.21,3.08c-1.41,1.21-3.08,2.51-5.09,3.89c-0.9,0.62-1.89,1.26-2.95,1.93
					l3.83,2.89c0.89-0.2,1.75-0.4,2.58-0.61C67.99,235.5,69.16,235.19,70.27,234.87z"/>
			</g>
		</g>
	</g>
	<path d="M239.76,173.66c0,16.46-5.84,31.73-17.5,45.8c-8.03,9.67-17.44,16.52-28.23,20.54c-9.03,3.39-20.64,5.28-34.81,5.65
		c-3.39,0.13-8.16-0.13-14.3-0.75c-6.78-0.37-11.6-0.56-14.49-0.56c-9.16,0-17.12,0.69-23.9,2.07c-4.39,1.38-10.22,2.95-17.5,4.71
		c-2.63,0.38-5.15,0.57-7.53,0.57c-4.52,0-9.22-0.88-14.12-2.63c-6.02-2.14-11.6-7.65-16.74-16.56c-3.39-5.89-5.09-12.17-5.09-18.82
		c0-14.8,6.03-27.85,18.07-39.15c2.26-14.8,11.98-27.16,29.17-37.07c6.4-3.77,14.3-7.15,23.72-10.16
		c15.05-4.89,30.48-7.34,46.29-7.34c38.64,0,63.04,12,73.21,36C238.5,161.85,239.76,167.76,239.76,173.66z M126.45,210.46
		c-7.02,1.76-14.04,2.64-21.07,2.64c-19.06,0-31.61-5.27-37.63-15.81c-2.63-4.51-4.07-9.53-4.33-15.05c-0.13-2.26-0.13-3.95,0-5.09
		c-8.16,9.54-12.24,20.2-12.24,31.99c0,7.15,1.83,13.86,5.46,20.14c4.77,8.28,10.24,13.49,16.39,15.62
		c4.9,1.76,9.67,2.64,14.32,2.64c6.53,0,12.05-1.13,16.58-3.39c5.77-3.76,10.73-8.71,14.88-14.85
		C120.8,225.04,123.35,218.76,126.45,210.46z M155.64,131.61c0-5.01-5.08-7.53-15.24-7.53c-2.13,0-4.96,0.38-8.47,1.13
		c-8.54,1.88-14.06,3.26-16.56,4.14c-5.39,2.01-10.35,5.65-14.86,10.91c-4.65,5.65-6.97,11.23-6.97,16.75
		c0,0.63,0.06,1.19,0.19,1.69c2.39-0.37,4.77-0.56,7.15-0.56c6.53,0,12.48,1.38,17.88,4.14c7.41,3.76,11.1,9.22,11.1,16.37
		c0,1.76-0.25,3.58-0.75,5.46c0-5.52-0.63-9.35-1.88-11.48c-3.39-5.77-9.66-9.72-18.82-11.86c1.51,1.38,2.26,3.01,2.26,4.89
		c0,2.51-1.01,4.71-3.01,6.59c-2.01,1.89-4.27,2.83-6.78,2.83c-3.51,0-6.4-1.51-8.66-4.52c-1.88-2.51-2.95-5.65-3.2-9.41
		c-4.14,0.63-9.47,3.14-16,7.53c-0.62,3.26-0.94,6.09-0.94,8.47c0,10.92,4.21,19.01,12.6,24.28c6.77,4.27,15.99,6.4,27.66,6.4
		c5.14,0,10.29-0.44,15.43-1.32l26.16-68.13C155.06,135.5,155.64,133.24,155.64,131.61z M108.4,131.62
		c-20.32,7.28-32.05,19.26-35.19,35.94c5.15-3.76,10.41-6.27,15.8-7.53c0.13-5.39,2.26-10.85,6.4-16.37
		C98.93,138.9,103.25,134.88,108.4,131.62z M104.82,160.03c-1.51-0.25-3.14-0.37-4.89-0.37c-1.88,0-3.83,0.19-5.83,0.56
		c0.75,2.26,2.38,3.39,4.89,3.39C100.87,163.61,102.82,162.42,104.82,160.03z M224.89,169.63c0-12.54-3.45-22.96-10.35-31.24
		c-7.4-8.66-17.25-12.98-29.54-12.98c-7.03,0-11.92,3.57-14.68,10.73l-25.22,65.68c1-0.5,3.07-1.69,6.21-3.58
		c10.66-6.65,19.95-14.3,27.85-22.96c9.91-10.79,15.12-20.89,15.62-30.3l5.65-3.2c-0.63,10.66-6.15,21.71-16.56,33.12
		c-8.41,9.16-17.88,16.82-28.42,22.96c-2.13,1.13-5.9,3.27-11.29,6.4l-9.98,25.97c-1.13,2.89-1.69,5.27-1.69,7.15
		c0,3.14,3.07,5.02,9.22,5.65c0.37,0,4.45,0,12.23,0c11.54,0,20.95-1.38,28.23-4.14c8.41-3.13,16.06-8.78,22.96-16.94
		C218.31,206.39,224.89,188.95,224.89,169.63z"/>
	<path d="M307.58,175.96c0,4.74-2.31,6.93-6.93,6.57c-1.66-0.13-3.02-1.51-4.08-4.15c-1.42-3.39-3.44-5.09-6.04-5.09
		c-1.78,0-3.85,1.13-6.22,3.37c-5.21,4.97-10.42,13.43-15.63,25.38c-2.63,6.27-6.64,15.68-12.01,28.21
		c-1.05,2.62-2.73,6.77-5.04,12.48c-5.09,0.35-9.41,2.25-12.96,5.68c-2.6,2.6-6.57,6.51-11.9,11.72
		c-9.35,8.52-21.02,15.1-34.99,19.71c-12.91,4.26-26.17,6.39-39.78,6.39c-34.1,0-57.06-10.18-68.91-30.55
		c-3.08-5.33-4.62-10.54-4.62-15.63c0-8.05,3.5-15.1,10.48-21.13c6.16-5.33,13.44-8.76,21.85-10.3
		c-20.01,7.81-30.02,17.94-30.02,30.37c0,4.85,1.54,9.94,4.62,15.27C97.25,274.76,119.63,285,152.56,285
		c12.67,0,24.93-1.89,36.77-5.67c13.03-4.03,23.92-9.83,32.68-17.4c9.47-8.17,16.28-15.98,20.43-23.44
		c4.24-9.83,10.84-25.89,19.8-48.17c0.6-1.65,1.75-4.54,3.44-8.67c0.47-0.83,1.18-2.84,2.12-6.04c0.23-0.83-0.18-1.48-1.25-1.96
		l-1.6-0.36c-2.72,0.12-8.64,6.57-17.76,19.36l-0.53-0.18c3.43-5.53,7.28-10.58,11.54-15.16c5.92-6.35,10.66-9.52,14.21-9.52
		c2.84,0,4.26,1.88,4.26,5.63c0,3.52-0.65,8.27-1.95,14.25c5.09-7.03,8.94-11.76,11.54-14.18c4.15-3.8,8.52-5.71,13.14-5.71
		c2.25,0,4.17,0.8,5.77,2.4C306.78,171.79,307.58,173.71,307.58,175.96z"/>
	<path d="M330.8,180.01c11.04,0,19.21,6.74,11.45,18.6c-6.95,11.03-26.97,17.37-44.14,20.23c-3.68,8.79-3.88,16.96,1.64,20.44
		c8.78,5.32,22.27,0.82,32.9-6.95c8.38-6.74,15.73-14.91,21.86-25.13c1.02-1.64,2.45-0.61,1.63,0.82
		c-5.92,10.01-12.87,19-22.48,26.36c-11.03,8.58-23.3,13.69-37.8,9.6c-10.22-2.66-17.78-14.72-9.81-32.29
		C293.82,194.72,311.19,180.01,330.8,180.01z M304.65,206.78c-2.04,3.27-3.88,6.54-5.52,9.6c12.46-2.66,22.68-9.19,29.43-20.23
		c4.7-7.97,4.9-13.69,0.61-13.69C323.65,182.46,313.23,192.88,304.65,206.78z"/>
	<path d="M395.78,192.47c6.13-10.01,12.05-11.24,21.86-11.24l-28.61,51.7c-6.95,12.46,2.86,7.15,11.24,1.23
		c7.36-5.32,16.76-16.14,23.09-26.97c1.02-1.64,2.45-0.61,1.64,0.82c-13.28,22.27-31.27,37.39-42.91,37.39
		c-4.7,0-8.99-4.29-6.54-14.1c-7.56,8.99-15.53,14.1-23.09,14.1c-14.31-0.61-13.28-17.57-4.91-32.69
		c7.56-13.69,25.34-35.55,41.69-32.69C394.55,181.03,396.59,185.53,395.78,192.47z M363.49,212.5c-9.19,16.55-12.05,28.61-4.9,28.61
		c5.31,0,16.76-12.06,25.95-28.61c9.19-16.55,11.24-27.79,5.52-27.79C384.74,184.91,372.69,195.94,363.49,212.5z"/>
	<path d="M496.91,192.67c6.33-11.44-1.43-8.99-11.65-1.02c-4.9,3.88-10.22,9.4-14.71,15.94l-20.03,36.58
		c-6.13,0-13.69-3.88-6.95-15.94l19.62-35.55c6.33-11.44-1.84-8.99-11.85-1.02c-4.91,3.88-10.42,9.6-14.72,16.14l-20.23,36.37
		c-5.92,0-13.28-3.88-6.74-15.94l25.95-46.99c5.73,0,12.88,3.88,7.56,14.5c8.18-8.17,19.21-15.73,26.77-15.73
		c5.11,0,9.81,5.11,5.72,16.96l1.43-1.23c8.17-8.17,19-15.73,26.77-15.73c5.92,0,11.85,7.36,2.25,24.52l-15.53,28.4
		c-7.15,12.46,2.86,7.15,11.03,1.23c7.56-5.32,16.96-16.14,23.09-26.97c1.23-1.64,2.66-0.61,1.64,0.82
		c-13.08,22.27-31.06,37.39-42.91,37.39c-5.92,0-11.65-7.35-2.25-24.52L496.91,192.67z"/>
	<path d="M741.3,217.21c0,8.9-3.02,20.68-9.06,35.36c-4.5,10.89-12.02,21.51-22.56,31.85c-9.23,9.11-16.12,13.18-24.88,17.79
		c-8.76,4.61-19.71,8.31-32.86,11.09c-10.89,2.33-20.95,3.5-30.19,3.5c-18.71,0-35.46-4.34-50.26-13.01
		c-15.51-9.01-28.69-18.66-35.32-34.56c-2.84-6.78-4.26-14.12-4.26-22.01c0-7.01,1.42-13.79,4.26-20.35l35.51-81.55
		c1.06-2.45,1.72-4.34,1.96-5.67c0.36-1.67-0.59-2.78-2.84-3.34c-1.42-0.44-3.14-0.56-5.15-0.33l0.35-1.17h4.79
		c0.59,0,2.13-0.67,4.62-2c7.34-3.89,10.72-10.78,10.13-20.68c-0.71-10.34-5.45-19.29-14.21-26.85
		c-10.18-8.78-23.62-13.17-40.31-13.17c-5.8,0-12.01,0.61-18.65,1.83c-16.57,3.01-32.85,9.95-48.84,20.85
		c-17.05,11.67-28.36,24.41-33.92,38.19c4.5-13.67,15.69-26.57,33.57-38.69c22.61-15.34,44.93-23.01,66.95-23.01
		c15.98,0,29.72,3.67,41.2,11.01c13.14,8.34,19.71,19.68,19.71,34.03c0,6.67-1.17,12.73-3.51,18.18c-1.07,2.45-4.28,9.78-9.63,22
		l-17.66,40.66c-4.24,10.02-8.96,21.14-14.15,33.38c-1.52,3.67-2.28,5.73-2.28,6.18c0,1.23,0.65,1.84,1.95,1.84
		c3.91,0,10.13-6.5,18.65-19.51l0.35,0.33c-4.15,6.01-7.28,10.29-9.41,12.84c-6.99,8.23-13.32,12.34-19,12.34
		c-0.83,0-1.42-0.22-1.77-0.67c-0.24,9.11,1.18,17.34,4.26,24.68c6.28,15.01,18.93,24.11,33.73,32.89
		c14.21,8.45,30.13,12.68,47.77,12.68c9.94,0,20.83-1.39,32.68-4.17c12.31-2.78,22.61-6.36,30.9-10.75
		c8.28-4.39,14.46-7.79,22.74-15.8c9.94-9.56,17.34-19.9,22.2-31.02c6.86-15.79,10.3-28.24,10.3-37.36c0-7.89-2.25-15.84-6.75-23.85
		s-10.18-14.45-17.05-19.34c-6.28-4.34-14.21-7.45-23.8-9.34c9.71,1.89,17.76,4.98,24.15,9.25c6.4,4.28,12.13,10.48,17.23,18.6
		C738.51,199.14,741.3,208.09,741.3,217.21z"/>
	<path d="M594.94,243.69c-4.15,1.8-8.15,2.98-13.03,3.42c-18.12,1.62-19.41-12.83-11.07-32.04c8.56-19.02,23.55-34.93,41.47-36.53
		c18.11-1.62,19.81,12.8,11.45,31.8c-4.64,10.06-11.67,20.94-20.86,28.33 M603.48,224.47c5.73-9.34,10.39-19.19,12.74-29.66
		c2.2-9.84-0.79-13.47-5.27-13.07c-6.31,0.56-17.56,14.7-25.25,32c-7.67,17.51-9.12,31.18-2.61,30.6c1.22-0.11,4-1.18,7.82-4.39"/>
	<path d="M679.55,192.48c6.13-10.01,12.05-11.24,21.86-11.24l-28.61,51.7c-6.95,12.46,2.86,7.15,11.24,1.23
		c7.36-5.32,16.76-16.14,23.09-26.97c1.02-1.64,2.45-0.61,1.64,0.82c-13.28,22.27-31.27,37.39-42.91,37.39
		c-4.7,0-8.99-4.29-6.54-14.1c-7.56,8.99-15.53,14.1-23.09,14.1c-14.31-0.61-13.28-17.57-4.91-32.69
		c7.56-13.69,25.34-35.55,41.69-32.69C678.32,181.04,680.37,185.54,679.55,192.48z M647.26,212.51
		c-9.19,16.55-12.05,28.61-4.9,28.61c5.31,0,16.76-12.06,25.95-28.61c9.19-16.55,11.24-27.79,5.52-27.79
		C668.52,184.92,656.46,195.95,647.26,212.51z"/>
	<path d="M824.85,193.64c-0.34,7.13-2.05,14.77-5.13,22.92c-7.23,19.08-17.26,32-30.1,38.76c-10.92,5.8-20.59,8.49-29,8.09
		c-12.6-0.6-21.22-4-25.84-10.18c-2.2-2.91-3.53-5.61-4-8.09c-0.76-3.78-0.45-7.86,0.93-12.24c0.69-2.19,2.14-6.74,4.34-13.66
		c-12.62,16.84-22.67,25.07-30.14,24.72c-5.72-0.27-8.4-4.14-8.04-11.62c0.09-1.98,0.43-4.08,1-6.27
		c-4.36-1.73-7.65-5.34-9.84-10.83c-1.77-4.65-2.52-9.66-2.27-15.03c0.24-5.02,1.33-10.76,3.28-17.22
		c4.73-15.69,14.89-28.78,30.48-39.27c13.66-9.18,27.09-13.63,40.3-13.35c5.49,0.15,9.17,0.32,11.03,0.53l16.81,0.8l-5.69,12.54
		c16.58,0.56,28.21,7.08,34.87,19.56C823,173.43,825.33,183.37,824.85,193.64z M775.51,134.95c0.06-1.17-1.07-2.1-3.37-2.79
		c-1.98-0.33-5.88-0.57-11.73-0.73c-13.44-0.29-27,4.21-40.66,13.5c-14.76,10.06-24.2,22.78-28.32,38.14
		c-2.13,7.86-3.3,14.06-3.52,18.61c-0.24,5.02,0.42,9.56,1.98,13.61c1.99,4.89,5.05,8.14,9.19,9.74c1.41-5.1,4.09-10.89,8.03-17.4
		c5.32-8.66,11.43-16.41,18.31-23.25c9.33-9.18,17.38-13.61,24.15-13.29c2.57,0.12,5.07,1.71,7.49,4.75
		c3.24-6.75,6.76-14.19,10.54-22.31C772.82,142.31,775.46,136.12,775.51,134.95z M753.51,180.41c0.25-5.25-1.67-7.97-5.75-8.17
		c-5.02-0.24-13.9,10.45-26.63,32.08c-8.66,14.8-13.12,24.94-13.39,30.43c-0.18,3.73,1.07,5.66,3.76,5.79
		c2.33,0.11,6.14-2.4,11.41-7.53c3.81-3.79,7.02-7.44,9.65-10.95c4.37-5.76,8.6-12.4,12.71-19.93
		C750.54,192.56,753.28,185.32,753.51,180.41z M822.81,192.14c0.5-10.51-1.4-19.78-5.7-27.83c-6.45-12.12-17.97-18.47-34.56-19.02
		l-23.57,51.15c-1.82,3.89-5.19,11.17-10.12,21.83c-5.06,11-7.62,17.15-7.68,18.43c-0.06,1.17,0.44,1.77,1.49,1.82
		c1.98,0.09,7-4.52,15.05-13.85l0.51,0.37c-3.24,4.18-7.24,8.32-12,12.42c-5.99,5.22-10.43,7.75-13.35,7.61
		c-0.47-0.02-0.59,0.2-0.38,0.68c1.04,2.62,2.23,4.78,3.55,6.49c4.08,5.22,11.06,8.48,20.95,9.78c8.84,1.12,19.26-1.6,31.28-8.16
		c13.81-7.53,23.79-20.4,29.92-38.59C820.92,207.2,822.46,199.49,822.81,192.14z"/>
	<path d="M784.82,181.24c5.92,0,13.48,4.09,6.94,15.94l-19.82,35.76c-6.94,12.46,3.06,7.15,11.45,1.23
		c7.15-5.32,16.76-16.14,23.09-26.97c0.82-1.64,2.25-0.61,1.43,0.82c-13.08,22.27-31.26,37.39-42.91,37.39
		c-6.14,0-11.65-7.35-2.05-24.52L784.82,181.24z M800.17,160.63c4.7,0,7.97,3.47,7.36,7.56c-0.82,4.29-5.52,7.56-10.01,7.56
		c-4.7,0-8.18-3.27-7.56-7.56C790.56,164.11,795.67,160.63,800.17,160.63z"/>
	<path d="M891.55,208.01c-13.28,22.27-31.26,37.39-42.91,37.39c-6.13,0-11.64-7.35-2.25-24.52l15.73-28.2
		c6.33-11.44-1.84-8.99-11.85-1.02c-4.91,3.88-10.42,9.6-14.72,16.14l-20.23,36.37c-5.92,0-13.28-3.88-6.74-15.94l25.95-46.99
		c5.73,0,12.88,3.88,7.56,14.5c8.18-8.17,19.21-15.73,26.77-15.73c5.92,0,11.85,7.36,2.45,24.52l-15.73,28.4
		c-6.95,12.46,3.06,7.15,11.24,1.23c7.15-5.32,16.96-16.14,23.09-26.97C890.94,205.56,892.37,206.58,891.55,208.01z"/>
	<path d="M954.88,201.62c-0.63,6.37-3.14,12.57-7.55,18.62c-4.41,6.05-9.53,10.39-15.39,13.03c-6.48,2.93-12.81,4.44-19.01,4.54
		c6.23,3.11,11.29,7.6,15.18,13.46c3.88,5.85,5.5,12.08,4.85,18.68c-0.6,6.12-2.94,11.99-7,17.6c-4.06,5.6-8.96,9.67-14.68,12.21
		c-12.82,5.75-25.72,7.98-38.68,6.7c-5.19-0.51-10.08-1.59-14.67-3.23c-17.7-6.27-28.18-16.41-31.44-30.41
		c-1.17-4.99-1.51-9.97-1.02-14.91c1.47-14.85,8.97-25.17,22.51-30.97c7.21-3.09,14.11-4.31,20.71-3.66
		c2.47,0.24,4.98,0.79,7.51,1.63c-1.51-0.38-3.15-0.66-4.91-0.84c-8.13-0.8-15.55,0.25-22.26,3.15c-12.19,5.34-19,15.25-20.43,29.74
		c-0.5,5.06-0.11,10.1,1.18,15.11c3.45,13.3,13.73,23.07,30.84,29.28c4.94,1.8,10.23,2.98,15.89,3.53
		c12.02,1.19,23.32-0.62,33.91-5.4c5.49-2.55,10.19-6.55,14.12-11.99c3.93-5.45,6.19-11.17,6.78-17.18
		c0.98-9.9-4.07-19.62-15.14-29.16c3.12,3.29,4.48,6.98,4.07,11.11c-0.21,2.12-1.09,4.41-2.64,6.88
		c-5.64,8.96-16.36,12.66-32.15,11.1c-6.13-0.61-11.63-2.1-16.51-4.48c-6.46-3.26-9.43-7.48-8.92-12.66
		c0.52-5.3,5.96-9.76,16.31-13.38c1.73-0.66,4.57-1.69,8.52-3.08c-5.15-3.24-7.57-6.51-7.24-9.82c0.51-5.18,5.67-9.79,15.47-13.82
		c-6.35-5.62-9.17-11.97-8.47-19.04c0.71-7.18,4.25-13.2,10.62-18.05c6.37-4.84,13.14-6.91,20.34-6.2
		c5.89,0.58,9.93,3.06,12.11,7.44c1.56-0.09,3.93-0.92,7.12-2.51c3.19-1.59,5.97-2.32,8.34-2.21c3.2,0.08,4.66,1.59,4.37,4.53
		c-0.16,1.65-0.98,2.64-2.43,2.97c3.49,2.01,6.1,5.06,7.84,9.16C954.64,193.21,955.3,197.38,954.88,201.62z M913.95,256.47
		c0.45-4.6-4.5-9.26-14.86-13.96c-6.49-2.9-10.54-4.67-12.14-5.3c-5.29,1.74-9.08,3.38-11.37,4.94c-3.96,2.7-6.14,6.11-6.55,10.24
		c-0.5,5.06,1.48,9.18,5.92,12.36c3.68,2.51,8.22,4.03,13.64,4.56c5.66,0.56,10.77-0.01,15.34-1.7
		C910.1,265.37,913.44,261.66,913.95,256.47z M953.03,202.33c0.83-8.36-2.03-15.07-8.54-20.12c-2.88-2.19-5.36-3.5-7.46-3.95
		c-3.62-0.71-6.5-0.52-8.62,0.58c1.04,3.91,1.51,7.58,1.41,11.02c-0.38,7.46-3.74,13.7-10.06,18.72c-6.32,5.03-13.26,7.17-20.8,6.42
		c-0.48-0.05-1.2-0.27-2.17-0.66s-1.75-0.62-2.34-0.68c-1.41-0.14-3.38,0.8-5.9,2.81c-2.52,2.01-3.85,3.73-3.99,5.14
		c-0.22,2.24,2.16,4.56,7.16,6.95c3.32,1.28,6.71,2.57,10.15,3.86c3.44,1.29,6.62,2.79,9.55,4.51c14.74,0.15,26.23-5.38,34.47-16.58
		C950.03,214.59,952.41,208.58,953.03,202.33z M922.06,181.6c0.66-6.72-1.42-10.31-6.25-10.79c-5.06-0.5-10.25,3.8-15.55,12.92
		c-4.58,7.88-7.14,14.53-7.68,19.94c-0.65,6.6,1.17,9.87,5.45,9.82c4.76,0,10-4.3,15.73-12.9C918.79,193,921.56,186.67,922.06,181.6
		z"/>
	<g id="XMLID_31_">
		<g id="XMLID_34_">
			<g id="XMLID_35_">
				<path d="M890.75,124.56c0.77-1.9,2.21-3.49,4.01-4.76c6.12-4.37,16.94-5,27.85-0.65c11.02,4.11,21.69,14.14,28.35,26.28
					l0.17,0.32c-3.73-7.57-8.58-14.66-14.54-20.66c-5.87-5.93-12.69-10.62-19.72-14.04c-21.51-10.73-44.71-11.95-68.13-22.26
					c-6.83-3.04-13.53-6.95-19.22-11.75c-1.93-1.5-6.36-6.1-6.14-6.17c0.1-0.02,4.82,4.36,6.76,5.74c5.8,4.52,12.32,8.21,19,11.1
					c19.68,8.48,39.5,10.67,58.71,18.09c-3.11-1.43-6.27-2.78-9.43-4.17c-12.05-5.27-24.59-10.64-35.1-17.79
					c-10.49-6.96-18.54-16.21-19.86-24.51c-0.42-2.43-0.38-4.71,0.36-6.68c0.17-0.67,1.15-2.18,1.55-1.96
					c0.35,0.21,0.48,2.13,0.6,2.85c0.15,2.19,0.49,4.34,1.18,6.59c2.33,7.57,9.16,15.61,18.67,22.39
					c9.47,6.88,21.19,12.57,32.91,18.27c3.64,1.78,7.3,3.57,10.93,5.45c0.65,0.34,1.67,0.88,2.48,1.31
					c1.61,0.73,3.24,1.45,4.83,2.27c10.9,5.34,21.36,13.85,28.63,24.89c7.28,10.89,12.02,23.29,14.37,35.88
					c1.36,7.81,1.66,15.77,0.54,23.11c-0.2,2.5-1.65,7.11-1.59,7.1c-0.06-0.01,1.27-4.71,1.43-7.22c1.02-7.38,0.64-15.28-0.8-23.02
					c-0.98-4.8-2.22-9.6-3.92-14.24c-1.54-3.56-3.33-6.99-5.32-10.24c-6.94-11.46-17.05-20.2-27-23.76
					c-9.91-3.75-19.12-3.13-25.38,0.08c-1.86,0.96-3.44,2.16-5,3.45c-0.56,0.37-1.85,1.59-2.34,1.34
					C890.23,127.03,890.45,125.15,890.75,124.56z"/>
			</g>
		</g>
		<g id="XMLID_32_">
			<g id="XMLID_33_">
				<path d="M936.88,135.55c-1.78-4.82,0.28-6.66,2.58-8.56c-1.96,3.21-2.81,6.98,0.29,10.97c3.72-3.33,4.85-9.45,3.02-15.2
					C936.76,123.45,930.67,129.28,936.88,135.55z"/>
				<path d="M963.25,181.93c2.01-2.61,4.59-4.35,7.64-4.45c1.63-0.04,3.49,0.84,5.3,1.58c-5.59-0.75-11.25,0.53-13.11,6.98
					c5.84,1.68,13.55-0.33,17.45-6.23C974.3,172.99,964.46,172.1,963.25,181.93z"/>
				<path d="M953.44,159.17c-6-9.65-14.81-4.49-17.88,2.45c6.04,2.6,12.89,4.02,19.24,2.12c-3.61-6.15-9.62-6.33-14.45-4.54
					c1.31-0.97,2.62-1.96,4.02-2.31C947.35,156.14,950.7,156.69,953.44,159.17z"/>
				<path d="M911.85,147.48c-0.26-1.15-0.53-2.3-0.41-3.32c0.32-2.62,1.52-4.93,3.78-6.28c-7.32,0.6-7.03,10.3-3.35,14.13
					c4.39-2.66,7.13-8.68,6.89-13.94C914.13,138.86,912.31,143.29,911.85,147.48z"/>
				<path d="M892.38,133.44c0.65,4.48,5.51,9.36,9.73,5.44c-3.48,1.68-5.13-0.92-7.09-3.13c2.7,2.09,6.01,3.53,8.83,1.31
					C900.81,134,896.54,132.85,892.38,133.44z"/>
				<path d="M886.12,111.71c-0.75,0.84-1.45,1.68-1.67,2.52c-0.58,2.21,0.02,4.25,1.59,6.1c-6.47-2.55-4.47-10.36,2.13-12.02
					c3.73,3.9,3.07,9.45,0.98,13.18C885.58,119.14,884.91,115.17,886.12,111.71z"/>
				<path d="M838.13,132.05c0.15,1.02,0.33,2.02,0.79,2.74c1.19,1.86,3.01,3.06,5.16,3.28c-5.59,2.18-9.75-4.62-7.25-9.65
					c4.81,0.17,8.62,4.58,9.89,8.51C842.93,137.47,839.94,135.25,838.13,132.05z"/>
				<path d="M861.14,102.57c-0.89,0.67-1.76,1.31-2.14,2.06c-1.02,1.88-0.93,3.72,0.24,5.22c-5.62-2.07-1.85-9.04,4.7-10.13
					c2.32,3.22,0.6,7.91-1.94,11.03C858.93,108.8,859.12,105.44,861.14,102.57z"/>
				<path d="M860.37,127.13c-1.58-4.64,4.28-11.63,10.13-8c-4.51-1.14-6.53,1.93-8.05,4.71c2.5-2.75,6.76-5.3,10.29-2.85
					C869.21,124.21,864.92,125.95,860.37,127.13z"/>
				<path d="M829.68,156.4c-3.9-2.71-4.66-10.63,1.4-11.52c-3.63,1.81-2.82,5.07-2.03,7.99c-0.16-3.43,0.86-7.6,4.7-8
					C833.76,149.21,832.21,153.2,829.68,156.4z"/>
				<path d="M858.07,156.39c-0.81-0.3-1.64-0.61-2.27-1.14c-1.64-1.38-2.87-3.28-3.19-5.5c-1.52,5.56,5.04,9.68,8.32,8.65
					c-0.48-4.4-3.6-9.31-7.22-11.14C852.98,150.96,855.49,154.23,858.07,156.39z"/>
				<path d="M842.93,163.81c3.34,1.99,8.18,0.56,6.79-4.1c0.02,3.02-2.14,3.32-4.31,3.5c2.28-0.85,4.26-2.64,3.57-5.57
					C845.97,158.3,844.01,160.9,842.93,163.81z"/>
				<path d="M850.45,104.45c-0.17-0.17-0.31-0.3-0.31-0.3s0.12,0.14,0.26,0.33c5.26,7.01,14.5,11.56,23.72,14.99
					c7.4,2.65,14.96,4.52,22.47,5.87c-18.14-0.46-33.53,5.9-47.94,12.09c-6.33,2.7-12.69,5.34-19.71,6.23
					c-1.12,0.18-2.89,0.31-4.33,0.05c-1.46-0.22-2.45-0.9-2.46-0.87c0.01-0.02,0.97,0.69,2.44,0.97c1.45,0.32,3.24,0.24,4.37,0.08
					c7.06-0.75,13.57-3.33,19.91-5.91c4.69-1.99,9.37-3.75,14.15-5.49c-6.88,3.31-11.42,10.1-12.7,17.03
					c-1.58,8.5,1.62,17.32,6.77,24.31c0.13,0.19,0.24,0.34,0.24,0.34s-0.09-0.16-0.22-0.35c-4.79-7.37-7.32-15.79-5.88-23.97
					c1.32-8.03,7-15.53,15.51-18.32c0.2-0.07,0.37-0.13,0.33-0.36c15.07-5.14,33.59-6.48,50.62-1c7.7,2.19,14.98,6.2,21.16,10.73
					c-7.37-4.78-16.74-7.39-25.03-5.8c-10.57,1.67-18.14,9.82-21.31,19.39c-0.09,0.25-0.17,0.45-0.17,0.45s0.09-0.2,0.2-0.43
					c3.9-9.39,11.46-16.43,21.58-18.18c10.05-1.95,21.68,1.71,29.78,9.39c0.21,0.19,0.39,0.35,0.61,0.16
					c1.5,1.44,2.88,3.09,4.21,4.74c8.06,10.24,12.69,24.36,11.64,37.67c-0.57,7.87-3.15,15.15-6.75,21.01
					c-1.02,2.03-4.71,6.59-4.51,6.69c0.05,0.18,4.19-4.08,5.32-6.07c3.98-5.72,6.82-13.13,7.55-21.23
					c1.36-13.71-3.37-28.51-11.8-39.17c-8.56-10.77-19.77-17.02-32.16-20.9c-5-1.46-10.11-2.51-15.28-2.93
					c-0.08-0.05-0.22-0.03-0.38-0.05c-9.49-1.07-18.66-3.71-27.75-7.08C865.58,114.99,856.65,111,850.45,104.45z"/>
			</g>
		</g>
	</g>
</g>
</svg>
