<?xml version="1.0" encoding="utf-8"?>
<svg width="37" height="37" viewBox="0 0 37 37" fill="none" xmlns="http://www.w3.org/2000/svg">
<path d="M29.4121 21.752C27.619 21.752 26.1602 23.2108 26.1602 25.0039C26.1602 26.797 27.619 28.2559 29.4121 28.2559C31.2052 28.2559 32.6641 26.797 32.6641 25.0039C32.6641 23.2108 31.2052 21.752 29.4121 21.752ZM29.4121 26.0879C28.8144 26.0879 28.3281 25.6016 28.3281 25.0039C28.3281 24.4062 28.8144 23.9199 29.4121 23.9199C30.0098 23.9199 30.4961 24.4062 30.4961 25.0039C30.4961 25.6016 30.0098 26.0879 29.4121 26.0879Z" fill="#2ccfbb"/>
<path d="M37 18.5C37 8.31351 28.6859 0 18.5 0C8.31358 0 0 8.31409 0 18.5C0 28.6865 8.31416 37 18.5 37C21.507 37 24.5005 36.2346 27.218 34.7788L28.5336 36.5511C28.7218 36.8117 29.0443 37.0001 29.4113 37.0001C29.4116 37.0001 29.4119 37 29.4122 37C29.4125 37 29.4128 37.0001 29.413 37.0001C29.7625 37.0001 30.0903 36.8279 30.2908 36.5511L35.4889 29.5488C35.4894 29.5481 35.4897 29.5474 35.4902 29.5467C36.478 28.2272 37 26.6565 37 25.0039C37 24.1187 36.8472 23.2688 36.5673 22.4783C36.8534 21.1783 37 19.842 37 18.5ZM12.9817 3.12831C11.9244 4.47259 11.1126 6.07523 10.5051 7.67425C9.37422 7.3716 8.31524 7.0037 7.35187 6.57646C8.95964 5.07232 10.8703 3.88861 12.9817 3.12831ZM5.80026 8.2437C7.00753 8.83469 8.3641 9.33491 9.82697 9.73324C9.1614 12.0866 8.77124 14.6995 8.68907 17.416H2.20482C2.43275 13.9553 3.74314 10.7859 5.80026 8.2437ZM2.20482 19.584H8.68893C8.77037 22.2748 9.15403 24.8638 9.80811 27.1997C8.33562 27.6018 6.97096 28.1071 5.75849 28.7045C3.72544 26.171 2.43123 23.0212 2.20482 19.584ZM7.29904 30.3743C8.26928 29.9404 9.3378 29.567 10.4798 29.2601C11.0867 30.8723 11.9079 32.5065 12.9817 33.8716C10.8472 33.103 8.91765 31.9019 7.29904 30.3743ZM17.416 34.648C15.1304 33.8798 13.5118 31.0502 12.617 28.7796C14.1428 28.4985 15.7588 28.3262 17.416 28.2737V34.648ZM17.416 26.1048C15.5197 26.1619 13.6661 26.3676 11.9196 26.7082C11.3025 24.5394 10.9388 22.116 10.8578 19.584H17.416V26.1048ZM17.416 17.416H10.8578C10.9396 14.8574 11.3104 12.4097 11.9394 10.2235C13.6801 10.5618 15.5269 10.7661 17.416 10.8229V17.416ZM17.416 8.65403C15.7686 8.60185 14.162 8.4313 12.6442 8.15308C13.5407 5.90179 15.1525 3.11284 17.416 2.35196V8.65403ZM29.6483 6.57653C28.6849 7.00377 27.6259 7.3716 26.495 7.67432C25.8877 6.07566 25.076 4.47281 24.0184 3.12838C26.1299 3.88869 28.0405 5.0724 29.6483 6.57653ZM19.584 2.35196C21.8471 3.1127 23.4572 5.89644 24.3558 8.15308C22.8381 8.4313 21.2314 8.60185 19.584 8.65403V2.35196ZM19.584 10.8229C21.4732 10.7661 23.3199 10.5618 25.0606 10.2235C25.6896 12.4097 26.0604 14.8574 26.1422 17.416H19.584V10.8229ZM21.9253 26.248C21.1584 26.1762 20.3725 26.1282 19.5841 26.1051V19.5768H24.1076C22.6996 20.9551 21.8242 22.8826 21.8242 25.0039C21.8242 25.4249 21.8586 25.8404 21.9253 26.248ZM19.584 34.647V28.2737C20.638 28.3064 21.6862 28.3856 22.6798 28.5093C22.868 28.8691 23.0864 29.2158 23.3341 29.5468C23.3346 29.5475 23.335 29.5483 23.3355 29.5489L23.7916 30.1632C22.624 32.5414 21.1221 34.1292 19.584 34.647ZM24.0645 33.8261C24.4725 33.3064 24.8594 32.726 25.2224 32.0906L25.9098 33.0166C25.3078 33.3247 24.6915 33.5948 24.0645 33.8261ZM33.7512 28.2522C33.7506 28.253 33.7502 28.2538 33.7496 28.2546C33.7491 28.2553 33.7486 28.2559 33.748 28.2566L29.4121 34.0975L25.0762 28.2567C25.0757 28.2559 25.0752 28.2554 25.0746 28.2546C25.074 28.2538 25.0736 28.253 25.073 28.2522C24.3659 27.3096 23.9922 26.1864 23.9922 25.0039C23.9922 22.0154 26.4236 19.584 29.4121 19.584C32.4007 19.584 34.832 22.0154 34.832 25.0039C34.832 26.1864 34.4583 27.3096 33.7512 28.2522ZM34.7898 19.656C33.4146 18.2733 31.5117 17.416 29.4121 17.416H28.3111C28.2289 14.6995 27.8387 12.0866 27.1732 9.73324C28.636 9.33491 29.9926 8.83469 31.1998 8.2437C33.47 11.0493 34.832 14.6183 34.832 18.5C34.832 18.8863 34.8168 19.2718 34.7898 19.656Z" fill="#2ccfbb"/>
</svg>
